<?xml version="1.0" encoding="utf-8"?>
<!-- Generator: Adobe Illustrator 21.0.0, SVG Export Plug-In . SVG Version: 6.00 Build 0)  -->
<svg version="1.1" id="Calque_1" xmlns="http://www.w3.org/2000/svg" xmlns:xlink="http://www.w3.org/1999/xlink" x="0px" y="0px"
	 viewBox="0 0 125 146" style="enable-background:new 0 0 125 146;" xml:space="preserve">
<style type="text/css">
	.st0{fill:none;}
	.st1{clip-path:url(#SVGID_2_);fill:#C2786B;}
	.st2{clip-path:url(#SVGID_4_);fill:#70BABA;}
	.st3{fill:#14171A;}
	.st4{fill:#714F47;}
	.st5{fill:#FF7900;}
	.st6{fill:#838080;}
	.st7{fill-rule:evenodd;clip-rule:evenodd;}
	.st8{fill:#1B2734;}
	.st9{fill:#8F8F8F;}
	.st10{fill:#81C8A6;}
	.st11{fill:#66413E;}
	.st12{clip-path:url(#SVGID_6_);fill:#FFFFFF;}
	.st13{clip-path:url(#SVGID_6_);fill:#FF7901;}
	.st14{fill:#FFFFFF;}
	.st15{clip-path:url(#SVGID_8_);fill:#FFFFFF;}
</style>
<rect x="0.2" class="st0" width="125" height="146"/>
<g>
	<defs>
		<rect id="SVGID_1_" x="-4.2" y="39" width="131.4" height="113"/>
	</defs>
	<clipPath id="SVGID_2_">
		<use xlink:href="#SVGID_1_"  style="overflow:visible;"/>
	</clipPath>
	<path class="st1" d="M61.7,43.7C61.6,43.8,61.2,43.9,61.7,43.7C61.8,43.7,61.8,43.7,61.7,43.7"/>
</g>
<g>
	<defs>
		<rect id="SVGID_3_" x="-4.2" y="39" width="131.4" height="113"/>
	</defs>
	<clipPath id="SVGID_4_">
		<use xlink:href="#SVGID_3_"  style="overflow:visible;"/>
	</clipPath>
	<path class="st2" d="M64.9,39.1C64.9,39.1,64.9,39.1,64.9,39.1L64.9,39.1C64.8,39.1,64.8,39.1,64.9,39.1"/>
	<path class="st2" d="M64.8,39L64.8,39C64.8,39,64.8,39,64.8,39"/>
</g>
<path class="st3" d="M59.4,40.2L59.4,40.2L59.4,40.2z"/>
<g>
	<g>
		<g id="XMLID_723_">
			<g id="XMLID_669_">
				<path id="XMLID_203_" class="st4" d="M78.2,76.1c-1.9-0.6-4.5-0.3-6.2-1.4c-4.9-3.2-9.7-6.7-13.9-10.7c-0.9,1.6-1.9,3.3-2.7,4.6
					c-1.1,1.8-2.3,3.6-3.4,5.4c-0.9,1.5-0.6,3-1.9,4.4c-1.6,1.7-4.8,2.1-6.2,3.9c-0.9,1.2-0.6,2.6-0.8,4.1
					c-0.8,6.7-11.4,13.6-3.4,19.6c3.2,2.4,7.1,3.9,10.8,5.4c3,1.2,6.1,1.3,7.7-1.8c1.3-2.7,1.5-5.5,3.8-7.7c2.1-1.9,5.1-2.5,7.1-4.3
					c2.9-2.6,5.3-6.4,7.3-9.8c1.8-3,4-6.4,3.8-10C80.4,76.8,79.1,76.4,78.2,76.1z"/>
				<path id="XMLID_202_" d="M62,108.5c-0.5-0.8-21-14.2-23.6-14.4c-1.7-0.1-3.4,2.6-4.2,3.5c-3.2,3.8-33.7,40.4-34.4,48h40.2
					c7.5-6.9,18.6-28.6,21.8-34.7C62.2,109.9,62.3,109.2,62,108.5z"/>
				<g id="XMLID_145_">
					<path id="XMLID_201_" class="st5" d="M38.3,96.2c0.1-0.3-0.1-0.6-0.4-0.7c-0.3-0.1-0.6,0.1-0.7,0.4c0,0.1,0,0.2-0.1,0.3
						c0,0,0,0.1-0.1,0.1c0,0.1-0.1,0.1-0.1,0.2c-0.2,0.3,0,0.7,0.2,0.8c0.3,0.2,0.6,0,0.8-0.2C38.1,96.8,38.2,96.5,38.3,96.2z"/>
					<path id="XMLID_200_" class="st5" d="M40.9,98.4c0.2-0.2,0.2-0.5,0.1-0.7c-0.2-0.3-0.6-0.4-0.8-0.2c-0.1,0.1-0.2,0.2-0.3,0.3
						c0,0,0,0.1,0,0.1c-0.2,0.2-0.2,0.5-0.1,0.7c0.2,0.3,0.6,0.4,0.8,0.2c0.1-0.1,0.2-0.2,0.3-0.3C40.8,98.5,40.9,98.4,40.9,98.4z"
						/>
					<path id="XMLID_199_" class="st5" d="M39.2,101.1L39.2,101.1L39.2,101.1c0.2-0.2,0.3-0.5,0.1-0.8c-0.2-0.3-0.6-0.4-0.8-0.2
						c-0.3,0.2-0.4,0.5-0.5,0.9c-0.1,0.3,0.1,0.6,0.4,0.7c0.3,0.1,0.6-0.1,0.7-0.4C39.2,101.3,39.2,101.2,39.2,101.1z"/>
					<path id="XMLID_198_" class="st5" d="M44,100.6c0.2-0.3,0-0.7-0.2-0.8c-0.3-0.2-0.6,0-0.8,0.2c-0.2,0.3-0.4,0.6-0.6,0.9
						c-0.2,0.3-0.2,0.6,0,0.9c0.2,0.2,0.6,0.2,0.9,0C43.5,101.3,43.8,101,44,100.6z"/>
					<path id="XMLID_197_" class="st5" d="M41.9,102.7c-0.3-0.1-0.6,0.1-0.7,0.4c0,0,0,0,0,0c0,0.1-0.1,0.1-0.1,0.2c0,0,0,0,0,0
						c0,0,0,0,0,0c-0.2,0.2-0.3,0.5-0.2,0.8c0.2,0.3,0.6,0.4,0.8,0.2c0.3-0.2,0.6-0.6,0.7-1C42.4,103.1,42.2,102.7,41.9,102.7z"/>
					<path id="XMLID_196_" class="st5" d="M46.2,103.6L46.2,103.6c0-0.1,0.1-0.1,0.1-0.2c0.1-0.2,0.1-0.3,0.2-0.5
						c0.1-0.3-0.1-0.7-0.4-0.7c-0.3-0.1-0.6,0.1-0.7,0.4c0,0,0,0,0,0.1l0,0c0,0.1-0.1,0.1-0.1,0.2c-0.1,0.2-0.1,0.3-0.2,0.5
						c-0.1,0.3,0.1,0.7,0.4,0.7C45.8,104.1,46.1,103.9,46.2,103.6C46.2,103.6,46.2,103.6,46.2,103.6z"/>
					<path id="XMLID_195_" class="st5" d="M45.1,106.7c0.2-0.3,0-0.7-0.2-0.8c-0.3-0.2-0.6,0-0.8,0.2c-0.3,0.4-0.5,0.9-0.6,1.4
						c-0.2,0.8,1,1,1.2,0.3C44.7,107.4,44.9,107,45.1,106.7z"/>
					<path id="XMLID_194_" class="st5" d="M49.4,105.4L49.4,105.4c0-0.1,0.1-0.1,0.1-0.2c0.1-0.2,0.1-0.3,0.2-0.5
						c0.1-0.3-0.1-0.7-0.4-0.7c-0.3-0.1-0.6,0.1-0.7,0.4c0,0,0,0,0,0.1l0,0c0,0.1-0.1,0.1-0.1,0.2c-0.1,0.2-0.1,0.3-0.2,0.5
						c-0.1,0.3,0.1,0.7,0.4,0.7C49,106,49.3,105.7,49.4,105.4C49.4,105.4,49.4,105.4,49.4,105.4z"/>
					<path id="XMLID_193_" class="st5" d="M47.8,109c0.1-0.3-0.1-0.7-0.4-0.7c-0.3-0.1-0.6,0.1-0.7,0.4c0,0,0,0,0,0c0,0,0,0,0,0
						c0,0.1-0.1,0.1-0.1,0.2c-0.1,0.1-0.2,0.3-0.3,0.4c-0.2,0.3,0,0.7,0.2,0.8c0.3,0.2,0.6,0,0.8-0.2
						C47.5,109.7,47.7,109.4,47.8,109z"/>
					<path id="XMLID_192_" class="st5" d="M51.6,107.1c0.1-0.3-0.1-0.6-0.4-0.7c-0.3-0.1-0.6,0.1-0.7,0.4l-0.2,0.7
						c-0.1,0.3,0.1,0.6,0.4,0.7c0.3,0.1,0.6-0.1,0.7-0.4L51.6,107.1z"/>
					<path id="XMLID_191_" class="st5" d="M50.5,111.8c0,0,0.1-0.1,0.1-0.1c0.1-0.1,0.1-0.2,0.2-0.4c0.1-0.3-0.1-0.7-0.4-0.7
						c-0.3-0.1-0.6,0.1-0.7,0.4l0,0c0,0-0.1,0.1-0.1,0.1c-0.1,0.1-0.1,0.2-0.2,0.4c-0.1,0.3,0.1,0.7,0.4,0.7
						C50.1,112.3,50.4,112.1,50.5,111.8L50.5,111.8z"/>
					<path id="XMLID_190_" class="st5" d="M49.3,114c0-0.3-0.3-0.6-0.6-0.6c-0.3,0-0.6,0.3-0.6,0.6c0,0.1,0,0.1,0,0.2l0,0
						c0,0.1,0,0.1,0,0.1c0-0.1-0.1,0.1,0,0.1c0,0,0,0-0.1,0.1c0,0,0,0,0,0c0,0,0,0,0,0c-0.3,0.2-0.4,0.5-0.2,0.8
						c0.2,0.3,0.6,0.4,0.8,0.2C49.1,115.2,49.4,114.6,49.3,114z"/>
					<path id="XMLID_189_" class="st5" d="M56.1,107.4c0-0.3-0.3-0.6-0.6-0.6c-0.3,0-0.6,0.3-0.6,0.6c0,0,0,0.1,0,0.1l0,0
						c0,0,0,0,0,0c0,0,0,0.1,0,0.1l0,0c0,0,0,0,0,0c-0.1,0.1-0.2,0.3-0.2,0.4c-0.2,0.3,0,0.7,0.2,0.8c0.3,0.2,0.6,0,0.8-0.2
						C55.9,108.3,56.1,107.9,56.1,107.4z"/>
					<path id="XMLID_188_" class="st5" d="M54.3,111.2c0.2-0.8-1-1-1.2-0.3c-0.1,0.4-0.4,0.8-0.6,1.2c-0.1,0.3-0.1,0.7,0.2,0.8
						c0.3,0.1,0.7,0.1,0.8-0.2C53.8,112.2,54.1,111.8,54.3,111.2z"/>
					<path id="XMLID_187_" class="st5" d="M52.3,115.1c0.2-0.3,0.2-0.6,0-0.9c-0.2-0.2-0.6-0.2-0.9,0c-0.4,0.4-0.5,1-0.8,1.5
						c-0.1,0.3-0.1,0.7,0.2,0.8c0.3,0.1,0.7,0.1,0.8-0.2C51.9,115.9,52,115.4,52.3,115.1z"/>
					<path id="XMLID_186_" class="st5" d="M58.6,110.6c0.2-0.3,0.2-0.6,0-0.9c-0.2-0.2-0.6-0.2-0.9,0c-0.4,0.5-0.6,1-0.9,1.6
						c-0.1,0.3-0.1,0.7,0.2,0.8c0.3,0.1,0.7,0.1,0.8-0.2C58.1,111.5,58.3,111,58.6,110.6z"/>
					<path id="XMLID_185_" class="st5" d="M46.2,112.3c0-0.2-0.1-0.3-0.2-0.4c-0.2-0.3-0.5-0.4-0.8-0.2c-0.3,0.2-0.3,0.5-0.2,0.7
						c-0.1,0.3,0.1,0.6,0.4,0.7c0.3,0.1,0.6-0.1,0.7-0.4C46.2,112.6,46.2,112.5,46.2,112.3z"/>
					<path id="XMLID_184_" class="st5" d="M35.1,98.8c-0.3-0.1-0.5,0.1-0.6,0.4c0,0.1-0.1,0.2-0.1,0.3l0,0c0,0,0,0,0,0.1
						c-0.2,0.2-0.3,0.4-0.1,0.7c0.1,0.2,0.5,0.3,0.7,0.2c0.3-0.2,0.4-0.6,0.5-1C35.6,99.1,35.4,98.8,35.1,98.8z"/>
					<path id="XMLID_183_" class="st5" d="M36.9,103.6c0.1-0.3-0.1-0.6-0.4-0.6c-0.3-0.1-0.5,0.1-0.6,0.4l0,0c0,0,0,0,0,0.1
						c0,0,0,0,0,0c0,0,0,0,0,0c-0.1,0.2-0.2,0.3-0.3,0.5c-0.1,0.2,0,0.6,0.2,0.7c0.3,0.1,0.5,0,0.7-0.2
						C36.5,104.2,36.8,103.9,36.9,103.6z"/>
					<path id="XMLID_182_" class="st5" d="M39.5,105.7c-0.3-0.2-0.6,0-0.8,0.2c-0.1,0.1-0.2,0.3-0.2,0.4c-0.1,0.1-0.1,0.2-0.2,0.2
						c-0.3,0.2-0.4,0.5-0.2,0.8c0.2,0.3,0.5,0.4,0.8,0.2c0.4-0.3,0.6-0.7,0.9-1.1C39.9,106.2,39.8,105.9,39.5,105.7z"/>
					<path id="XMLID_181_" class="st5" d="M42.6,111.1c0-0.2-0.1-0.5-0.2-0.6c-0.2-0.3-0.5-0.4-0.8-0.2c-0.3,0.2-0.4,0.5-0.2,0.8
						c0,0,0,0,0,0c0,0,0,0.1-0.1,0.1c-0.2,0.3,0,0.6,0.2,0.8c0.3,0.2,0.6,0,0.8-0.2C42.4,111.6,42.5,111.4,42.6,111.1z"/>
					<path id="XMLID_180_" class="st5" d="M55.8,116.1c0.1-0.1,0.1-0.2,0.2-0.3c0,0,0,0,0,0c0,0,0,0,0,0c0,0,0,0,0,0
						c0.3-0.2,0.4-0.5,0.2-0.8c-0.2-0.3-0.5-0.4-0.8-0.2c-0.3,0.2-0.5,0.5-0.6,0.8c-0.2,0.3,0,0.7,0.2,0.8
						C55.3,116.5,55.6,116.3,55.8,116.1z"/>
					<path id="XMLID_179_" class="st5" d="M53.2,120.3c0.1-0.4,0.3-0.7,0.4-1.1c0.1-0.3,0.1-0.6-0.2-0.8c-0.3-0.1-0.7-0.1-0.8,0.2
						c-0.2,0.4-0.4,0.9-0.5,1.4C51.8,120.7,53,121,53.2,120.3z"/>
					<path id="XMLID_178_" class="st5" d="M48.7,119.6C48.7,119.6,48.7,119.6,48.7,119.6c0-0.1,0.1-0.2,0.1-0.2
						c0-0.1,0.1-0.2,0.1-0.3c0.1-0.2,0.2-0.4,0.2-0.6c0.1-0.3-0.1-0.6-0.4-0.7c-0.3-0.1-0.6,0.1-0.7,0.4c0,0,0,0,0,0.1
						c0,0,0,0.1,0,0.1c0,0.1-0.1,0.2-0.1,0.3c-0.1,0.2-0.2,0.4-0.2,0.6c-0.1,0.3,0.1,0.6,0.4,0.7C48.3,120.1,48.6,119.9,48.7,119.6z
						"/>
					<path id="XMLID_177_" class="st5" d="M30.2,110.6c0.1-0.3-0.1-0.6-0.4-0.7c-0.3-0.1-0.6,0.1-0.7,0.4c0,0.1,0,0.2-0.1,0.3
						c0,0,0,0.1-0.1,0.1c0,0.1-0.1,0.1-0.1,0.2c-0.2,0.3,0,0.7,0.2,0.8c0.3,0.2,0.6,0,0.8-0.2C30,111.3,30.1,111,30.2,110.6z"/>
					<path id="XMLID_176_" class="st5" d="M32.7,112.8c0.2-0.2,0.2-0.5,0.1-0.7c-0.2-0.3-0.6-0.4-0.8-0.2c-0.1,0.1-0.2,0.2-0.3,0.3
						c0,0,0,0.1,0,0.1c-0.2,0.2-0.2,0.5-0.1,0.7c0.2,0.3,0.6,0.4,0.8,0.2c0.1-0.1,0.2-0.2,0.3-0.3C32.7,112.9,32.7,112.8,32.7,112.8
						z"/>
					<path id="XMLID_175_" class="st5" d="M31.1,115.5L31.1,115.5L31.1,115.5c0.2-0.2,0.3-0.5,0.1-0.8c-0.2-0.3-0.6-0.4-0.8-0.2
						c-0.3,0.2-0.4,0.5-0.5,0.9c-0.1,0.3,0.1,0.6,0.4,0.7c0.3,0.1,0.6-0.1,0.7-0.4C31.1,115.7,31.1,115.6,31.1,115.5z"/>
					<path id="XMLID_174_" class="st5" d="M35.9,115c0.2-0.3,0-0.7-0.2-0.8c-0.3-0.2-0.6,0-0.8,0.2c-0.2,0.3-0.4,0.6-0.6,0.9
						c-0.2,0.3-0.2,0.6,0,0.9c0.2,0.2,0.6,0.2,0.9,0C35.4,115.7,35.6,115.4,35.9,115z"/>
					<path id="XMLID_173_" class="st5" d="M33.7,117.1c-0.3-0.1-0.6,0.1-0.7,0.4c0,0,0,0,0,0c0,0.1-0.1,0.1-0.1,0.2c0,0,0,0,0,0
						c0,0,0,0,0,0c-0.2,0.2-0.3,0.5-0.2,0.8c0.2,0.3,0.6,0.4,0.8,0.2c0.3-0.2,0.6-0.6,0.7-1C34.3,117.5,34,117.1,33.7,117.1z"/>
					<path id="XMLID_172_" class="st5" d="M38.1,118L38.1,118c0-0.1,0.1-0.1,0.1-0.2c0.1-0.2,0.1-0.3,0.2-0.5
						c0.1-0.3-0.1-0.7-0.4-0.7c-0.3-0.1-0.6,0.1-0.7,0.4c0,0,0,0,0,0.1l0,0c0,0.1-0.1,0.1-0.1,0.2c-0.1,0.2-0.1,0.3-0.2,0.5
						c-0.1,0.3,0.1,0.7,0.4,0.7C37.7,118.5,38,118.3,38.1,118C38.1,118,38.1,118,38.1,118z"/>
					<path id="XMLID_171_" class="st5" d="M45.4,117.4L45.4,117.4c0-0.1,0.1-0.1,0.1-0.2c0.1-0.2,0.1-0.3,0.2-0.5
						c0.1-0.3-0.1-0.7-0.4-0.7c-0.3-0.1-0.6,0.1-0.7,0.4c0,0,0,0,0,0.1l0,0c0,0.1-0.1,0.1-0.1,0.2c-0.1,0.2-0.1,0.3-0.2,0.5
						c-0.1,0.3,0.1,0.7,0.4,0.7C45,117.9,45.3,117.7,45.4,117.4C45.4,117.4,45.4,117.4,45.4,117.4z"/>
					<path id="XMLID_170_" class="st5" d="M41.5,116.1L41.5,116.1c0-0.1,0.1-0.1,0.1-0.2c0.1-0.2,0.1-0.3,0.2-0.5
						c0.1-0.3-0.1-0.7-0.4-0.7c-0.3-0.1-0.6,0.1-0.7,0.4c0,0,0,0,0,0.1l0,0c0,0.1-0.1,0.1-0.1,0.2c-0.1,0.2-0.1,0.3-0.2,0.5
						c-0.1,0.3,0.1,0.7,0.4,0.7C41.1,116.6,41.4,116.4,41.5,116.1C41.5,116.1,41.5,116.1,41.5,116.1z"/>
					<path id="XMLID_169_" class="st5" d="M39.1,110.7L39.1,110.7c0-0.1,0.1-0.1,0.1-0.2c0.1-0.2,0.1-0.3,0.2-0.5
						c0.1-0.3-0.1-0.7-0.4-0.7c-0.3-0.1-0.6,0.1-0.7,0.4c0,0,0,0,0,0.1l0,0c0,0.1-0.1,0.1-0.1,0.2c-0.1,0.2-0.1,0.3-0.2,0.5
						c-0.1,0.3,0.1,0.7,0.4,0.7C38.7,111.2,39,111,39.1,110.7C39.1,110.7,39.1,110.7,39.1,110.7z"/>
					<path id="XMLID_168_" class="st5" d="M37.9,113.7L37.9,113.7c0-0.1,0.1-0.1,0.1-0.2c0.1-0.2,0.1-0.3,0.2-0.5
						c0.1-0.3-0.1-0.7-0.4-0.7c-0.3-0.1-0.6,0.1-0.7,0.4c0,0,0,0,0,0.1l0,0c0,0.1-0.1,0.1-0.1,0.2c-0.1,0.2-0.1,0.3-0.2,0.5
						c-0.1,0.3,0.1,0.7,0.4,0.7C37.4,114.3,37.8,114.1,37.9,113.7C37.8,113.8,37.8,113.7,37.9,113.7z"/>
					<path id="XMLID_167_" class="st5" d="M34.2,110.4L34.2,110.4c0-0.1,0.1-0.1,0.1-0.2c0.1-0.2,0.1-0.3,0.2-0.5
						c0.1-0.3-0.1-0.7-0.4-0.7c-0.3-0.1-0.6,0.1-0.7,0.4c0,0,0,0,0,0.1l0,0c0,0.1-0.1,0.1-0.1,0.2c-0.1,0.2-0.1,0.3-0.2,0.5
						c-0.1,0.3,0.1,0.7,0.4,0.7C33.8,111,34.1,110.8,34.2,110.4C34.2,110.5,34.2,110.5,34.2,110.4z"/>
					<path id="XMLID_166_" class="st5" d="M33.6,106L33.6,106c0-0.1,0.1-0.1,0.1-0.2c0.1-0.2,0.1-0.3,0.2-0.5
						c0.1-0.3-0.1-0.7-0.4-0.7c-0.3-0.1-0.6,0.1-0.7,0.4c0,0,0,0,0,0.1l0,0c0,0.1-0.1,0.1-0.1,0.2c-0.1,0.2-0.1,0.3-0.2,0.5
						c-0.1,0.3,0.1,0.7,0.4,0.7C33.2,106.5,33.5,106.3,33.6,106C33.6,106,33.6,106,33.6,106z"/>
					<path id="XMLID_165_" class="st5" d="M30.3,107.9L30.3,107.9c0-0.1,0.1-0.1,0.1-0.2c0.1-0.2,0.1-0.3,0.2-0.5
						c0.1-0.3-0.1-0.7-0.4-0.7c-0.3-0.1-0.6,0.1-0.7,0.4c0,0,0,0,0,0.1l0,0c0,0.1-0.1,0.1-0.1,0.2c-0.1,0.2-0.1,0.3-0.2,0.5
						c-0.1,0.3,0.1,0.7,0.4,0.7C29.8,108.4,30.2,108.2,30.3,107.9C30.2,107.9,30.2,107.9,30.3,107.9z"/>
					<path id="XMLID_164_" class="st5" d="M31.8,103.5L31.8,103.5c0-0.1,0.1-0.1,0.1-0.2c0.1-0.2,0.1-0.3,0.2-0.5
						c0.1-0.3-0.1-0.7-0.4-0.7c-0.3-0.1-0.6,0.1-0.7,0.4c0,0,0,0,0,0.1l0,0c0,0.1-0.1,0.1-0.1,0.2c-0.1,0.2-0.1,0.3-0.2,0.5
						c-0.1,0.3,0.1,0.7,0.4,0.7C31.4,104,31.7,103.8,31.8,103.5C31.8,103.5,31.8,103.5,31.8,103.5z"/>
					<path id="XMLID_163_" class="st5" d="M37,121.1c0.2-0.3,0-0.7-0.2-0.8c-0.3-0.2-0.6,0-0.8,0.2c-0.3,0.4-0.5,0.9-0.6,1.4
						c-0.2,0.8,1,1,1.2,0.3C36.6,121.8,36.8,121.4,37,121.1z"/>
					<path id="XMLID_162_" class="st5" d="M41.3,119.8L41.3,119.8c0-0.1,0.1-0.1,0.1-0.2c0.1-0.2,0.1-0.3,0.2-0.5
						c0.1-0.3-0.1-0.7-0.4-0.7c-0.3-0.1-0.6,0.1-0.7,0.4c0,0,0,0,0,0.1l0,0c0,0.1-0.1,0.1-0.1,0.2c-0.1,0.2-0.1,0.3-0.2,0.5
						c-0.1,0.3,0.1,0.7,0.4,0.7C40.9,120.4,41.2,120.2,41.3,119.8C41.3,119.8,41.3,119.8,41.3,119.8z"/>
					<path id="XMLID_161_" class="st5" d="M39.7,123.4c0.1-0.3-0.1-0.7-0.4-0.7c-0.3-0.1-0.6,0.1-0.7,0.4c0,0,0,0,0,0c0,0,0,0,0,0
						c0,0.1-0.1,0.1-0.1,0.2c-0.1,0.1-0.2,0.3-0.3,0.4c-0.2,0.3,0,0.7,0.2,0.8c0.3,0.2,0.6,0,0.8-0.2
						C39.4,124.1,39.6,123.8,39.7,123.4z"/>
					<path id="XMLID_160_" class="st5" d="M43.5,121.5c0.1-0.3-0.1-0.6-0.4-0.7c-0.3-0.1-0.6,0.1-0.7,0.4l-0.2,0.7
						c-0.1,0.3,0.1,0.6,0.4,0.7c0.3,0.1,0.6-0.1,0.7-0.4L43.5,121.5z"/>
					<path id="XMLID_159_" class="st5" d="M42.3,126.2c0,0,0.1-0.1,0.1-0.1c0.1-0.1,0.1-0.2,0.2-0.4c0.1-0.3-0.1-0.7-0.4-0.7
						c-0.3-0.1-0.6,0.1-0.7,0.4l0,0c0,0-0.1,0.1-0.1,0.1c-0.1,0.1-0.1,0.2-0.2,0.4c-0.1,0.3,0.1,0.7,0.4,0.7
						C41.9,126.7,42.2,126.5,42.3,126.2L42.3,126.2z"/>
					<path id="XMLID_158_" class="st5" d="M41.2,128.4c0-0.3-0.3-0.6-0.6-0.6c-0.3,0-0.6,0.3-0.6,0.6c0,0.1,0,0.1,0,0.2l0,0
						c0,0.1,0,0.1,0,0.1c0-0.1-0.1,0.1,0,0.1c0,0,0,0-0.1,0.1c0,0,0,0,0,0c0,0,0,0,0,0c-0.3,0.2-0.4,0.5-0.2,0.8
						c0.2,0.3,0.6,0.4,0.8,0.2C40.9,129.6,41.2,129.1,41.2,128.4z"/>
					<path id="XMLID_157_" class="st5" d="M48,121.8c0-0.3-0.3-0.6-0.6-0.6c-0.3,0-0.6,0.3-0.6,0.6c0,0,0,0.1,0,0.1l0,0c0,0,0,0,0,0
						c0,0,0,0.1,0,0.1l0,0c0,0,0,0,0,0c-0.1,0.1-0.2,0.3-0.2,0.4c-0.2,0.3,0,0.7,0.2,0.8c0.3,0.2,0.6,0,0.8-0.2
						C47.8,122.7,48,122.3,48,121.8z"/>
					<path id="XMLID_156_" class="st5" d="M46.2,125.6c0.2-0.8-1-1-1.2-0.3c-0.1,0.4-0.4,0.8-0.6,1.2c-0.1,0.3-0.1,0.7,0.2,0.8
						c0.3,0.1,0.7,0.1,0.8-0.2C45.7,126.6,46,126.2,46.2,125.6z"/>
					<path id="XMLID_155_" class="st5" d="M44.2,129.5c0.2-0.3,0.2-0.6,0-0.9c-0.2-0.2-0.6-0.2-0.9,0c-0.4,0.4-0.5,1-0.8,1.5
						c-0.1,0.3-0.1,0.7,0.2,0.8c0.3,0.1,0.7,0.1,0.8-0.2C43.8,130.3,43.9,129.8,44.2,129.5z"/>
					<path id="XMLID_154_" class="st5" d="M50.5,125c0.2-0.3,0.2-0.6,0-0.9c-0.2-0.2-0.6-0.2-0.9,0c-0.4,0.5-0.6,1-0.9,1.6
						c-0.1,0.3-0.1,0.7,0.2,0.8c0.3,0.1,0.7,0.1,0.8-0.2C50,125.9,50.2,125.4,50.5,125z"/>
					<path id="XMLID_153_" class="st5" d="M38.1,126.7c0-0.2-0.1-0.3-0.2-0.4c-0.2-0.3-0.5-0.4-0.8-0.2c-0.3,0.2-0.3,0.5-0.2,0.7
						c-0.1,0.3,0.1,0.6,0.4,0.7c0.3,0.1,0.6-0.1,0.7-0.4C38,127,38.1,126.9,38.1,126.7z"/>
					<path id="XMLID_152_" class="st5" d="M27,113.2c-0.3-0.1-0.5,0.1-0.6,0.4c0,0.1-0.1,0.2-0.1,0.3l0,0c0,0,0,0,0,0.1
						c-0.2,0.2-0.3,0.4-0.1,0.7c0.1,0.2,0.5,0.3,0.7,0.2c0.3-0.2,0.4-0.6,0.5-1C27.4,113.5,27.2,113.2,27,113.2z"/>
					<path id="XMLID_151_" class="st5" d="M28.7,118c0.1-0.3-0.1-0.6-0.4-0.6c-0.3-0.1-0.5,0.1-0.6,0.4l0,0c0,0,0,0,0,0.1
						c0,0,0,0,0,0c0,0,0,0,0,0c-0.1,0.2-0.2,0.3-0.3,0.5c-0.1,0.2,0,0.6,0.2,0.7c0.3,0.1,0.5,0,0.7-0.2
						C28.3,118.6,28.6,118.3,28.7,118z"/>
					<path id="XMLID_150_" class="st5" d="M31.4,120.1c-0.3-0.2-0.6,0-0.8,0.2c-0.1,0.1-0.2,0.3-0.2,0.4c-0.1,0.1-0.1,0.2-0.2,0.2
						c-0.3,0.2-0.4,0.5-0.2,0.8c0.2,0.3,0.5,0.4,0.8,0.2c0.4-0.3,0.6-0.7,0.9-1.1C31.8,120.6,31.7,120.3,31.4,120.1z"/>
					<path id="XMLID_149_" class="st5" d="M34.4,125.6c0-0.2-0.1-0.5-0.2-0.6c-0.2-0.3-0.5-0.4-0.8-0.2c-0.3,0.2-0.4,0.5-0.2,0.8
						c0,0,0,0,0,0c0,0,0,0.1-0.1,0.1c-0.2,0.3,0,0.6,0.2,0.8c0.3,0.2,0.6,0,0.8-0.2C34.3,126,34.4,125.8,34.4,125.6z"/>
					<path id="XMLID_148_" class="st5" d="M47.6,130.5c0.1-0.1,0.1-0.2,0.2-0.3c0,0,0,0,0,0c0,0,0,0,0,0c0,0,0,0,0,0
						c0.3-0.2,0.4-0.5,0.2-0.8c-0.2-0.3-0.5-0.4-0.8-0.2c-0.3,0.2-0.5,0.5-0.6,0.8c-0.2,0.3,0,0.7,0.2,0.8
						C47.1,130.9,47.5,130.7,47.6,130.5z"/>
					<path id="XMLID_147_" class="st5" d="M45,134.7c0.1-0.4,0.3-0.7,0.4-1.1c0.1-0.3,0.1-0.6-0.2-0.8c-0.3-0.1-0.7-0.1-0.8,0.2
						c-0.2,0.4-0.4,0.9-0.5,1.4C43.7,135.1,44.9,135.4,45,134.7z"/>
					<path id="XMLID_146_" class="st5" d="M40.6,134C40.6,134,40.6,134,40.6,134c0-0.1,0.1-0.2,0.1-0.2c0-0.1,0.1-0.2,0.1-0.3
						c0.1-0.2,0.2-0.4,0.2-0.6c0.1-0.3-0.1-0.6-0.4-0.7c-0.3-0.1-0.6,0.1-0.7,0.4c0,0,0,0,0,0.1c0,0,0,0.1,0,0.1
						c0,0.1-0.1,0.2-0.1,0.3c-0.1,0.2-0.2,0.4-0.2,0.6c-0.1,0.3,0.1,0.6,0.4,0.7C40.2,134.6,40.5,134.3,40.6,134z"/>
				</g>
				<g id="XMLID_92_">
					<path id="XMLID_144_" class="st5" d="M24,117.7c0.1-0.3,0-0.7-0.3-0.8c-0.3-0.1-0.7,0-0.8,0.3c0,0.1-0.1,0.2-0.1,0.2
						c0,0-0.1,0.1-0.1,0.1c0,0.1-0.1,0.1-0.2,0.2c-0.2,0.2-0.2,0.6,0.1,0.8c0.3,0.2,0.6,0.2,0.8-0.1C23.7,118.3,23.9,118,24,117.7z"
						/>
					<path id="XMLID_143_" class="st5" d="M26.1,120.3c0.2-0.2,0.3-0.4,0.2-0.7c-0.1-0.3-0.5-0.5-0.8-0.4c-0.1,0.1-0.3,0.1-0.3,0.3
						c0,0-0.1,0.1-0.1,0.1c-0.2,0.2-0.3,0.4-0.2,0.7c0.1,0.3,0.5,0.5,0.8,0.4c0.1-0.1,0.3-0.1,0.3-0.3
						C26.1,120.4,26.1,120.4,26.1,120.3z"/>
					<path id="XMLID_142_" class="st5" d="M24,122.7L24,122.7L24,122.7c0.2-0.2,0.4-0.4,0.3-0.7c-0.1-0.3-0.5-0.5-0.8-0.4
						c-0.3,0.2-0.5,0.4-0.7,0.8c-0.1,0.3,0,0.7,0.3,0.8c0.3,0.1,0.7,0,0.8-0.3C23.9,122.8,24,122.8,24,122.7z"/>
					<path id="XMLID_141_" class="st5" d="M28.8,123.1c0.2-0.2,0.2-0.7-0.1-0.8c-0.3-0.2-0.6-0.2-0.8,0.1c-0.3,0.3-0.5,0.5-0.8,0.7
						c-0.3,0.2-0.3,0.6-0.1,0.8c0.2,0.3,0.6,0.3,0.8,0.1C28.2,123.7,28.5,123.4,28.8,123.1z"/>
					<path id="XMLID_140_" class="st5" d="M26.3,124.7c-0.3-0.1-0.7,0-0.8,0.3c0,0,0,0,0,0c0,0-0.1,0.1-0.1,0.1c0,0,0,0,0,0
						c0,0,0,0,0,0c-0.3,0.1-0.4,0.5-0.3,0.8c0.1,0.3,0.5,0.5,0.8,0.4c0.4-0.2,0.7-0.5,0.8-0.8C26.7,125.2,26.6,124.8,26.3,124.7z"/>
					<path id="XMLID_139_" class="st5" d="M30.4,126.4L30.4,126.4c0-0.1,0.1-0.1,0.1-0.2c0.1-0.1,0.2-0.3,0.3-0.5
						c0.1-0.3,0-0.7-0.3-0.8c-0.3-0.1-0.7,0-0.8,0.3c0,0,0,0,0,0.1l0,0c0,0.1-0.1,0.1-0.1,0.2c-0.1,0.1-0.2,0.3-0.3,0.5
						c-0.1,0.3,0,0.7,0.3,0.8C29.9,126.9,30.2,126.8,30.4,126.4C30.4,126.5,30.4,126.5,30.4,126.4z"/>
					<path id="XMLID_138_" class="st5" d="M28.7,129.3c0.2-0.2,0.2-0.6-0.1-0.8c-0.3-0.2-0.6-0.2-0.8,0.1c-0.3,0.4-0.6,0.8-0.9,1.3
						c-0.3,0.7,0.8,1.2,1.1,0.5C28.2,129.9,28.4,129.6,28.7,129.3z"/>
					<path id="XMLID_137_" class="st5" d="M33.2,128.8L33.2,128.8c0-0.1,0.1-0.1,0.1-0.2c0.1-0.1,0.2-0.3,0.3-0.5
						c0.1-0.3,0-0.7-0.3-0.8c-0.3-0.1-0.7,0-0.8,0.3c0,0,0,0,0,0.1l0,0c0,0.1-0.1,0.1-0.1,0.2c-0.1,0.1-0.2,0.3-0.3,0.5
						c-0.1,0.3,0,0.7,0.3,0.8C32.6,129.3,33,129.2,33.2,128.8C33.1,128.9,33.2,128.9,33.2,128.8z"/>
					<path id="XMLID_136_" class="st5" d="M30.9,132.1c0.1-0.3,0-0.7-0.3-0.8c-0.3-0.1-0.7,0-0.8,0.3c0,0,0,0,0,0c0,0,0,0,0,0
						c0,0.1-0.1,0.1-0.1,0.2c-0.1,0.1-0.2,0.2-0.3,0.4c-0.2,0.2-0.2,0.6,0.1,0.8c0.3,0.2,0.6,0.2,0.8-0.1
						C30.5,132.7,30.7,132.4,30.9,132.1z"/>
					<path id="XMLID_135_" class="st5" d="M35,130.9c0.1-0.3,0-0.7-0.3-0.8c-0.3-0.1-0.7,0-0.8,0.3l-0.3,0.6c-0.1,0.3,0,0.7,0.3,0.8
						c0.3,0.1,0.7,0,0.8-0.3L35,130.9z"/>
					<path id="XMLID_134_" class="st5" d="M32.9,135.3c0,0,0.1-0.1,0.1-0.1c0.1-0.1,0.2-0.2,0.2-0.3c0.1-0.3,0-0.7-0.3-0.8
						c-0.3-0.1-0.7,0-0.8,0.3l0,0c0,0-0.1,0.1-0.1,0.1c-0.1,0.1-0.2,0.2-0.2,0.3c-0.1,0.3,0,0.7,0.3,0.8
						C32.5,135.7,32.8,135.6,32.9,135.3L32.9,135.3z"/>
					<path id="XMLID_133_" class="st5" d="M31.4,137.3c0-0.3-0.2-0.6-0.5-0.7c-0.3-0.1-0.7,0.2-0.7,0.5c0,0.1,0,0.1,0,0.2l0,0
						c0,0,0,0.1-0.1,0.1c0.1-0.1-0.1,0.1-0.1,0.1c0,0,0,0-0.1,0c0,0,0,0,0,0c0,0,0,0-0.1,0c-0.3,0.1-0.5,0.5-0.4,0.8
						c0.1,0.3,0.5,0.5,0.8,0.4C30.9,138.4,31.3,137.9,31.4,137.3z"/>
					<path id="XMLID_132_" class="st5" d="M39.3,132.2c0-0.3-0.2-0.6-0.5-0.7c-0.3-0.1-0.7,0.2-0.7,0.5c0,0,0,0.1,0,0.1l0,0
						c0,0,0,0,0,0c0,0,0,0.1,0,0.1l0,0c0,0,0,0,0,0c-0.1,0.1-0.2,0.2-0.3,0.4c-0.2,0.2-0.2,0.6,0.1,0.8c0.3,0.2,0.6,0.2,0.8-0.1
						C39,133,39.3,132.6,39.3,132.2z"/>
					<path id="XMLID_131_" class="st5" d="M36.8,135.5c0.3-0.7-0.8-1.2-1.1-0.5c-0.2,0.4-0.6,0.7-0.8,1.1c-0.2,0.3-0.2,0.6,0.1,0.8
						c0.2,0.2,0.7,0.2,0.8-0.1C36.1,136.4,36.6,136,36.8,135.5z"/>
					<path id="XMLID_130_" class="st5" d="M34.1,138.9c0.3-0.2,0.3-0.6,0.1-0.8c-0.2-0.3-0.6-0.3-0.8-0.1c-0.4,0.4-0.7,0.8-1,1.3
						c-0.2,0.3-0.2,0.6,0.1,0.8c0.2,0.2,0.7,0.2,0.8-0.1C33.5,139.6,33.8,139.2,34.1,138.9z"/>
					<path id="XMLID_129_" class="st5" d="M41.2,135.7c0.3-0.2,0.3-0.6,0.1-0.8c-0.2-0.3-0.6-0.3-0.8-0.1c-0.5,0.4-0.8,0.9-1.2,1.4
						c-0.2,0.3-0.2,0.6,0.1,0.8c0.2,0.2,0.7,0.2,0.8-0.1C40.5,136.5,40.8,136.1,41.2,135.7z"/>
					<path id="XMLID_128_" class="st5" d="M28.7,135c0-0.2,0-0.3-0.1-0.5c-0.1-0.3-0.5-0.5-0.8-0.4c-0.3,0.1-0.4,0.4-0.4,0.7
						c-0.1,0.3,0,0.7,0.3,0.8c0.3,0.1,0.7,0,0.8-0.3C28.6,135.3,28.6,135.2,28.7,135z"/>
					<path id="XMLID_127_" class="st5" d="M20.4,119.6c-0.3-0.1-0.6,0-0.7,0.3c0,0.1-0.1,0.2-0.1,0.3l0,0c0,0,0,0,0,0.1
						c-0.2,0.1-0.4,0.4-0.3,0.6c0.1,0.2,0.4,0.4,0.7,0.3c0.4-0.2,0.6-0.5,0.7-0.9C20.8,120,20.7,119.7,20.4,119.6z"/>
					<path id="XMLID_126_" class="st5" d="M21.2,124.6c0.1-0.2,0-0.6-0.3-0.7c-0.3-0.1-0.6,0-0.7,0.3l0,0c0,0,0,0,0,0.1c0,0,0,0,0,0
						c0,0,0,0,0,0c-0.1,0.1-0.3,0.3-0.4,0.4c-0.2,0.2-0.1,0.6,0.1,0.7c0.2,0.2,0.5,0.1,0.7-0.1C20.7,125.2,21,125,21.2,124.6z"/>
					<path id="XMLID_125_" class="st5" d="M23.4,127.2c-0.3-0.2-0.6-0.2-0.8,0.1c-0.1,0.1-0.2,0.2-0.3,0.4c-0.1,0.1-0.1,0.1-0.2,0.2
						c-0.3,0.1-0.5,0.4-0.3,0.7c0.1,0.3,0.5,0.5,0.7,0.3c0.5-0.2,0.7-0.6,1.1-0.9C23.7,127.8,23.6,127.4,23.4,127.2z"/>
					<path id="XMLID_124_" class="st5" d="M25.3,133.2c0.1-0.2,0-0.5-0.1-0.7c-0.1-0.3-0.4-0.4-0.7-0.3c-0.3,0.1-0.4,0.4-0.3,0.7
						c0,0,0,0,0,0c0,0-0.1,0.1-0.1,0.1c-0.2,0.2-0.2,0.6,0.1,0.8c0.3,0.2,0.6,0.1,0.8-0.1C25.1,133.6,25.2,133.4,25.3,133.2z"/>
					<path id="XMLID_123_" class="st5" d="M37.3,140.6c0.1-0.1,0.1-0.2,0.2-0.2c0,0,0,0,0,0c0,0,0,0,0,0c0,0,0,0,0,0
						c0.3-0.1,0.5-0.5,0.3-0.8c-0.1-0.3-0.5-0.5-0.8-0.3c-0.3,0.1-0.5,0.4-0.8,0.7c-0.2,0.2-0.2,0.6,0.1,0.8
						C36.8,140.9,37.1,140.8,37.3,140.6z"/>
					<path id="XMLID_122_" class="st5" d="M34,144.2c0.2-0.4,0.4-0.7,0.6-1c0.2-0.3,0.2-0.6-0.1-0.8c-0.2-0.2-0.6-0.2-0.8,0.1
						c-0.3,0.4-0.6,0.8-0.8,1.2C32.6,144.4,33.6,144.9,34,144.2z"/>
					<path id="XMLID_121_" class="st5" d="M37.4,145.7c0.2-0.3,0.4-0.6,0.6-0.9c0.2-0.3,0.2-0.6-0.1-0.8c-0.2-0.2-0.6-0.2-0.8,0.1
						c-0.3,0.4-0.6,0.8-0.8,1.2c-0.1,0.2-0.1,0.3,0,0.4H37.4z"/>
					<path id="XMLID_120_" class="st5" d="M42.4,140.8c0.2-0.4,0.4-0.7,0.6-1c0.2-0.3,0.2-0.6-0.1-0.8c-0.2-0.2-0.6-0.2-0.8,0.1
						c-0.3,0.4-0.6,0.8-0.8,1.2C41,141,42.1,141.5,42.4,140.8z"/>
					<path id="XMLID_119_" class="st5" d="M29.7,142.7C29.7,142.7,29.7,142.6,29.7,142.7c0,0,0.1-0.2,0.1-0.2
						c0.1-0.1,0.1-0.2,0.2-0.2c0.1-0.2,0.3-0.4,0.4-0.6c0.1-0.3,0-0.7-0.3-0.8c-0.3-0.1-0.6,0-0.8,0.3c0,0,0,0,0,0.1
						c0,0-0.1,0.1-0.1,0.1c-0.1,0.1-0.1,0.2-0.2,0.2c-0.1,0.2-0.3,0.4-0.4,0.6c-0.1,0.3,0,0.7,0.3,0.8
						C29.2,143.1,29.6,143,29.7,142.7z"/>
					<path id="XMLID_118_" class="st5" d="M13.3,130.3c0.1-0.3,0-0.7-0.3-0.8c-0.3-0.1-0.7,0-0.8,0.3c0,0.1-0.1,0.2-0.1,0.2
						c0,0-0.1,0.1-0.1,0.1c0,0.1-0.1,0.1-0.2,0.2c-0.2,0.2-0.2,0.6,0.1,0.8c0.3,0.2,0.6,0.2,0.8-0.1C13,130.8,13.1,130.6,13.3,130.3
						z"/>
					<path id="XMLID_117_" class="st5" d="M15.4,132.9c0.2-0.2,0.3-0.4,0.2-0.7c-0.1-0.3-0.5-0.5-0.8-0.4c-0.1,0.1-0.3,0.1-0.3,0.3
						c0,0-0.1,0.1-0.1,0.1c-0.2,0.2-0.3,0.4-0.2,0.7c0.1,0.3,0.5,0.5,0.8,0.4c0.1-0.1,0.3-0.1,0.3-0.3
						C15.3,133,15.3,132.9,15.4,132.9z"/>
					<path id="XMLID_116_" class="st5" d="M13.2,135.2L13.2,135.2L13.2,135.2c0.2-0.2,0.4-0.4,0.3-0.7c-0.1-0.3-0.5-0.5-0.8-0.4
						c-0.3,0.2-0.5,0.4-0.7,0.8c-0.1,0.3,0,0.7,0.3,0.8c0.3,0.1,0.7,0,0.8-0.3C13.2,135.4,13.2,135.3,13.2,135.2z"/>
					<path id="XMLID_115_" class="st5" d="M18,135.6c0.2-0.2,0.2-0.7-0.1-0.8c-0.3-0.2-0.6-0.2-0.8,0.1c-0.3,0.3-0.5,0.5-0.8,0.7
						c-0.3,0.2-0.3,0.6-0.1,0.8c0.2,0.3,0.6,0.3,0.8,0.1C17.4,136.3,17.7,136,18,135.6z"/>
					<path id="XMLID_114_" class="st5" d="M15.5,137.3c-0.3-0.1-0.7,0-0.8,0.3c0,0,0,0,0,0c0,0-0.1,0.1-0.1,0.1c0,0,0,0,0,0
						c0,0,0,0,0,0c-0.3,0.1-0.4,0.5-0.3,0.8c0.1,0.3,0.5,0.5,0.8,0.4c0.4-0.2,0.7-0.5,0.8-0.8C15.9,137.8,15.8,137.4,15.5,137.3z"/>
					<path id="XMLID_113_" class="st5" d="M19.6,139L19.6,139c0-0.1,0.1-0.1,0.1-0.2c0.1-0.1,0.2-0.3,0.3-0.5c0.1-0.3,0-0.7-0.3-0.8
						c-0.3-0.1-0.7,0-0.8,0.3c0,0,0,0,0,0.1l0,0c0,0.1-0.1,0.1-0.1,0.2c-0.1,0.1-0.2,0.3-0.3,0.5c-0.1,0.3,0,0.7,0.3,0.8
						C19.1,139.5,19.4,139.3,19.6,139C19.6,139,19.6,139,19.6,139z"/>
					<path id="XMLID_112_" class="st5" d="M26.9,139.8L26.9,139.8c0-0.1,0.1-0.1,0.1-0.2c0.1-0.1,0.2-0.3,0.3-0.5
						c0.1-0.3,0-0.7-0.3-0.8c-0.3-0.1-0.7,0-0.8,0.3c0,0,0,0,0,0.1l0,0c0,0.1-0.1,0.1-0.1,0.2c-0.1,0.1-0.2,0.3-0.3,0.5
						c-0.1,0.3,0,0.7,0.3,0.8C26.4,140.3,26.7,140.2,26.9,139.8C26.9,139.9,26.9,139.8,26.9,139.8z"/>
					<path id="XMLID_111_" class="st5" d="M23.3,137.8L23.3,137.8c0-0.1,0.1-0.1,0.1-0.2c0.1-0.1,0.2-0.3,0.3-0.5
						c0.1-0.3,0-0.7-0.3-0.8c-0.3-0.1-0.7,0-0.8,0.3c0,0,0,0,0,0.1l0,0c0,0.1-0.1,0.1-0.1,0.2c-0.1,0.1-0.2,0.3-0.3,0.5
						c-0.1,0.3,0,0.7,0.3,0.8C22.8,138.3,23.2,138.1,23.3,137.8C23.3,137.8,23.3,137.8,23.3,137.8z"/>
					<path id="XMLID_110_" class="st5" d="M22,132L22,132c0-0.1,0.1-0.1,0.1-0.2c0.1-0.1,0.2-0.3,0.3-0.5c0.1-0.3,0-0.7-0.3-0.8
						c-0.3-0.1-0.7,0-0.8,0.3c0,0,0,0,0,0.1l0,0c0,0.1-0.1,0.1-0.1,0.2c-0.1,0.1-0.2,0.3-0.3,0.5c-0.1,0.3,0,0.7,0.3,0.8
						C21.5,132.5,21.9,132.4,22,132C22,132.1,22,132,22,132z"/>
					<path id="XMLID_109_" class="st5" d="M20.2,134.8L20.2,134.8c0-0.1,0.1-0.1,0.1-0.2c0.1-0.1,0.2-0.3,0.3-0.5
						c0.1-0.3,0-0.7-0.3-0.8c-0.3-0.1-0.7,0-0.8,0.3c0,0,0,0,0,0.1l0,0c0,0.1-0.1,0.1-0.1,0.2c-0.1,0.1-0.2,0.3-0.3,0.5
						c-0.1,0.3,0,0.7,0.3,0.8C19.7,135.3,20,135.1,20.2,134.8C20.2,134.8,20.2,134.8,20.2,134.8z"/>
					<path id="XMLID_108_" class="st5" d="M17.2,130.9L17.2,130.9c0-0.1,0.1-0.1,0.1-0.2c0.1-0.1,0.2-0.3,0.3-0.5
						c0.1-0.3,0-0.7-0.3-0.8c-0.3-0.1-0.7,0-0.8,0.3c0,0,0,0,0,0.1l0,0c0,0.1-0.1,0.1-0.1,0.2c-0.1,0.1-0.2,0.3-0.3,0.5
						c-0.1,0.3,0,0.7,0.3,0.8C16.7,131.3,17.1,131.2,17.2,130.9C17.2,130.9,17.2,130.9,17.2,130.9z"/>
					<path id="XMLID_107_" class="st5" d="M17.5,126.3L17.5,126.3c0-0.1,0.1-0.1,0.1-0.2c0.1-0.1,0.2-0.3,0.3-0.5
						c0.1-0.3,0-0.7-0.3-0.8c-0.3-0.1-0.7,0-0.8,0.3c0,0,0,0,0,0.1l0,0c0,0.1-0.1,0.1-0.1,0.2c-0.1,0.1-0.2,0.3-0.3,0.5
						c-0.1,0.3,0,0.7,0.3,0.8C17,126.8,17.3,126.7,17.5,126.3C17.5,126.4,17.5,126.4,17.5,126.3z"/>
					<path id="XMLID_106_" class="st5" d="M13.9,127.6L13.9,127.6c0-0.1,0.1-0.1,0.1-0.2c0.1-0.1,0.2-0.3,0.3-0.5
						c0.1-0.3,0-0.7-0.3-0.8c-0.3-0.1-0.7,0-0.8,0.3c0,0,0,0,0,0.1l0,0c0,0.1-0.1,0.1-0.1,0.2c-0.1,0.1-0.2,0.3-0.3,0.5
						c-0.1,0.3,0,0.7,0.3,0.8C13.4,128,13.7,127.9,13.9,127.6C13.9,127.6,13.9,127.6,13.9,127.6z"/>
					<path id="XMLID_105_" class="st5" d="M16.3,123.5L16.3,123.5c0-0.1,0.1-0.1,0.1-0.2c0.1-0.1,0.2-0.3,0.3-0.5
						c0.1-0.3,0-0.7-0.3-0.8c-0.3-0.1-0.7,0-0.8,0.3c0,0,0,0,0,0.1l0,0c0,0.1-0.1,0.1-0.1,0.2c-0.1,0.1-0.2,0.3-0.3,0.5
						c-0.1,0.3,0,0.7,0.3,0.8C15.7,124,16.1,123.9,16.3,123.5C16.2,123.6,16.2,123.6,16.3,123.5z"/>
					<path id="XMLID_104_" class="st5" d="M17.9,141.8c0.2-0.2,0.2-0.6-0.1-0.8c-0.3-0.2-0.6-0.2-0.8,0.1c-0.3,0.4-0.6,0.8-0.9,1.3
						c-0.3,0.7,0.8,1.2,1.1,0.5C17.4,142.5,17.6,142.1,17.9,141.8z"/>
					<path id="XMLID_103_" class="st5" d="M22.4,141.4L22.4,141.4c0-0.1,0.1-0.1,0.1-0.2c0.1-0.1,0.2-0.3,0.3-0.5
						c0.1-0.3,0-0.7-0.3-0.8c-0.3-0.1-0.7,0-0.8,0.3c0,0,0,0,0,0.1l0,0c0,0.1-0.1,0.1-0.1,0.2c-0.1,0.1-0.2,0.3-0.3,0.5
						c-0.1,0.3,0,0.7,0.3,0.8C21.9,141.9,22.2,141.7,22.4,141.4C22.4,141.4,22.4,141.4,22.4,141.4z"/>
					<path id="XMLID_102_" class="st5" d="M18.8,145.7h0.3c0.1,0,0.2-0.1,0.3-0.2c0.2-0.3,0.5-0.5,0.7-0.9c0.1-0.3,0-0.7-0.3-0.8
						c-0.3-0.1-0.7,0-0.8,0.3c0,0,0,0,0,0c0,0,0,0,0,0c0,0.1-0.1,0.1-0.1,0.2c-0.1,0.1-0.2,0.2-0.3,0.4c-0.2,0.2-0.2,0.6,0.1,0.8
						C18.7,145.7,18.8,145.7,18.8,145.7z"/>
					<path id="XMLID_101_" class="st5" d="M24.2,143.5c0.1-0.3,0-0.7-0.3-0.8c-0.3-0.1-0.7,0-0.8,0.3l-0.3,0.6
						c-0.1,0.3,0,0.7,0.3,0.8c0.3,0.1,0.7,0,0.8-0.3L24.2,143.5z"/>
					<path id="XMLID_100_" class="st5" d="M28,145.7c0.3-0.3,0.5-0.6,0.5-1c0-0.3-0.2-0.6-0.5-0.7c-0.3-0.1-0.7,0.2-0.7,0.5
						c0,0,0,0.1,0,0.1l0,0c0,0,0,0,0,0c0,0,0,0.1,0,0.1l0,0c0,0,0,0,0,0c-0.1,0.1-0.2,0.2-0.3,0.4c-0.2,0.2-0.2,0.4-0.1,0.6H28z"/>
					<path id="XMLID_99_" class="st5" d="M9.6,132.1c-0.3-0.1-0.6,0-0.7,0.3c0,0.1-0.1,0.2-0.1,0.3l0,0c0,0,0,0,0,0.1
						c-0.2,0.1-0.4,0.4-0.3,0.6c0.1,0.2,0.4,0.4,0.7,0.3c0.4-0.2,0.6-0.5,0.7-0.9C10,132.6,9.9,132.3,9.6,132.1z"/>
					<path id="XMLID_98_" class="st5" d="M10.4,137.2c0.1-0.2,0-0.6-0.3-0.7c-0.3-0.1-0.6,0-0.7,0.3l0,0c0,0,0,0,0,0.1c0,0,0,0,0,0
						c0,0,0,0,0,0c-0.1,0.1-0.3,0.3-0.4,0.4c-0.2,0.2-0.1,0.6,0.1,0.7c0.2,0.2,0.5,0.1,0.7-0.1C9.9,137.8,10.2,137.5,10.4,137.2z"/>
					<path id="XMLID_97_" class="st5" d="M12.6,139.8c-0.3-0.2-0.6-0.2-0.8,0.1c-0.1,0.1-0.2,0.2-0.3,0.4c-0.1,0.1-0.1,0.1-0.2,0.2
						c-0.3,0.1-0.5,0.4-0.3,0.7c0.1,0.3,0.5,0.5,0.7,0.3c0.5-0.2,0.7-0.6,1.1-0.9C12.9,140.4,12.8,140,12.6,139.8z"/>
					<path id="XMLID_96_" class="st5" d="M8.9,143.2c-0.3-0.2-0.6-0.2-0.8,0.1c-0.1,0.1-0.2,0.2-0.3,0.4c-0.1,0.1-0.1,0.1-0.2,0.2
						c-0.3,0.1-0.5,0.4-0.3,0.7c0.1,0.3,0.5,0.5,0.7,0.3c0.5-0.2,0.7-0.6,1.1-0.9C9.2,143.8,9.1,143.4,8.9,143.2z"/>
					<path id="XMLID_95_" class="st5" d="M6.3,138.3c-0.3-0.2-0.6-0.2-0.8,0.1c-0.1,0.1-0.2,0.2-0.3,0.4c-0.1,0.1-0.1,0.1-0.2,0.2
						c-0.3,0.1-0.5,0.4-0.3,0.7c0.1,0.3,0.5,0.5,0.7,0.3c0.5-0.2,0.7-0.6,1.1-0.9C6.6,138.9,6.5,138.5,6.3,138.3z"/>
					<path id="XMLID_94_" class="st5" d="M3.9,143.2c-0.3-0.2-0.6-0.2-0.8,0.1c-0.1,0.1-0.2,0.2-0.3,0.4c-0.1,0.1-0.1,0.1-0.2,0.2
						c-0.3,0.1-0.5,0.4-0.3,0.7c0.1,0.3,0.5,0.5,0.7,0.3c0.5-0.2,0.7-0.6,1.1-0.9C4.2,143.8,4.1,143.4,3.9,143.2z"/>
					<path id="XMLID_93_" class="st5" d="M13.2,145.7h1.4c0,0,0,0,0,0c0.1-0.2,0-0.5-0.1-0.7c-0.1-0.3-0.4-0.4-0.7-0.3
						c-0.3,0.1-0.4,0.4-0.3,0.7c0,0,0,0,0,0c0,0-0.1,0.1-0.1,0.1C13.2,145.6,13.2,145.7,13.2,145.7z"/>
				</g>
				<path id="XMLID_91_" class="st4" d="M85.2,69.9c0.5,0.1,1,0.2,1.5,0.6c0.2,0.2-4.3,8.1-6.3,6.5C77.9,74.8,82.6,69.6,85.2,69.9z"
					/>
				<path id="XMLID_90_" class="st4" d="M80.7,63.6c-1.2,0.5-2.5,1.4-3.3,1c-1.1-0.6,1.9-2.8,2.4-3.3c0.9-0.8,1.9-1.6,2.7-2.5
					c0.5-0.6,1.1-1.4,0.6-2.2c-0.5-0.8-1.4-0.1-2,0.3c-2.9,1.8-5.6,4-8.4,6.1c-1.5,1.1-3,2.2-4.5,3.3c-1,0.7-2,1.9-3.3,1.6
					c-0.9-0.2-2-1.4-2.7-0.1c-0.4,0.8-0.6,1.7-0.7,2.7c-0.1,0.9-0.2,1.7-0.4,2.5c-0.3,1.2-0.1,2.5,0,3.7c0.2,1.4-0.6,5.7-0.6,5.7
					c0.6,2,0.5,3.8,2.8,4c2,0.2,4.2-0.4,5.9-1.5c1-0.6,1.1-1.4,2.4-1.1c1,0.2,1.9,1,3,0.8c0.9-0.2,1.5-1.5,2-2.2
					c1.2-1.7,4.7-5.1,3.8-7.3c-0.8-1.9-1.2-2-0.4-4.2c0.7-1.9,2.7-3.7,2.7-5.8C82.7,63.1,81.8,63.2,80.7,63.6z"/>
				<path id="XMLID_89_" class="st4" d="M80.8,51.6c-0.3,0.4-0.6,0.8-0.9,1.2c-0.6,0.9-0.8,2.6-2,2.9c-1.3,0.4-1.9-2-2.1-2.8
					c-0.5-2.1,1.4-3.5,3-4.5c1.8-1.1,3.4-0.8,4.3,1.1C82.4,49.9,81.5,50.8,80.8,51.6z"/>
				<path id="XMLID_88_" class="st4" d="M81.4,63.5c0,0-0.5,1-0.5,1c0,0.2,0.5,2.8,0.7,2.7c1.4-0.6,2.9-2.3,2.3-3.9
					c-0.3-0.7-1.5-2.4-2.4-1.4C81.1,62.3,81.7,63,81.4,63.5z"/>
				<path id="XMLID_87_" class="st6" d="M75.5,42.6c-1.5-0.9-3.2-0.7-5.2-0.4c-2,0.2-4.6,0.5-6.6,0.7c-1.9,0.2-4,0.4-5.9,0.6
					c-1.7,0.2-4.6,0.5-5.9,1.7c-1.2,1-1.6,3.1-1.7,4.7c-0.1,3.2,0.7,6.2,1.1,9.4c0.5,3.8,0.9,7.4,1.3,11.2c0.3,2.9,0.7,6.6,1.2,9.5
					c0.4,2.4,0.4,4.2,0.8,6.6c0.3,1.7,0.1,4,1.9,5.1c1.1,0.7,2.8,0.8,4.1,0.8c2-0.1,4-0.5,6-0.7c2.3-0.2,4.7-0.6,7-1
					c2-0.4,4.6-0.2,6.4-1.1c2.1-1.1,2.5-3.3,2.2-5.8c-0.8-9.3-2.5-18.6-3.2-27.9c-0.2-2.6-0.8-5.2-1.2-7.8
					C77.6,46,77.6,43.8,75.5,42.6z"/>
				<path id="XMLID_86_" class="st7" d="M73.5,46.2c-3.5,0.5-7.1,0.7-10.6,1.3c-2.7,0.4-5.5,0.1-8,1c-3.3,1.2-3.4,4.2-3,7.3
					c0.2,1.8,0.4,3.7,0.7,5.5c0.5,4.3,1,8.7,1.5,13c0.3,2.4,0.6,4.8,0.9,7.2c0.2,2-0.1,4.4,1.1,6.1c0.1,0.2,0.3,0.4,0.5,0.5
					c1.3,1.1,3.2,0.3,4.8,0.1c4.3-0.5,8.7-1,13-1.5c2.3-0.3,4.6-0.5,6.9-0.8c0,0,0,0,0,0c-0.7-5.7-1.3-11.3-2-17
					c-0.8-6.5-1.5-13.1-2.1-19.6C76.9,46.8,75.9,45.8,73.5,46.2z"/>
				<path id="XMLID_85_" class="st8" d="M56.1,43.8c-0.3-0.1-0.8-0.2-1.6,0c-0.3,0.1-0.6,0.2-0.8,0.4c0,0.2,0,0.5,0.3,0.6
					c0.2,0.1,0.8,0.1,1.1,0.1c0.3,0,0.6-0.1,0.9-0.3C56.3,44.3,56.1,44,56.1,43.8z"/>
				<path id="XMLID_84_" d="M54.3,43.7c-0.4,0.1-0.7,0.6-0.1,0.6l0,0c0.8,0.1,1.2-0.4,0.9-0.6C54.9,43.6,54.7,43.6,54.3,43.7z"/>
				<path id="XMLID_81_" class="st9" d="M72.3,43.3c-4,0.5-14.8,1.7-18,2c-4.2,0.5-3.4,5.8-3.3,7.3c0,0.5,1.7,14.6,2.9,24.9
					c0.7,5.8,1.2,10.3,1.3,10.5c0.5,4.4,2.8,4.8,5.6,4.5c3.1-0.4,12.2-1.5,15.3-1.8c6.4-0.8,6.2-2.6,5.7-6.5
					c-0.2-1.3-0.9-8.1-1.7-15.3c-0.8-7.3-1.7-15-2-17.9c0-0.4-0.1-0.8-0.1-1.2C77.8,47.1,77.3,42.7,72.3,43.3z M77.4,84.5
					c-1.4,0.2-15.2,1.8-16.9,2c-4.5,0.6-4.3-2.8-4.4-3.4c-0.1-1.2-0.2-1.3-0.3-2.3c-0.1-0.5-0.9-7.3-1.2-10.1l0,0
					c-0.1-0.7-0.2-1.5-0.3-2.2c-0.1-0.8-0.2-1.7-0.3-2.5c-0.2-1.5-1.5-12.5-1.7-14c-0.3-2.7,2-3.3,3.2-3.4c1.3-0.2,2.5-0.3,3.8-0.4
					c2.9-0.3,5.7-0.7,8.6-1c2-0.2,2.8-0.3,4.8-0.6c1.6-0.2,3.2-0.1,3.6,2.5c0.1,1,0.1,1.1,0.3,2.1c0.2,1.8,3.4,28.4,3.6,30
					C80.3,81.9,80.7,84.2,77.4,84.5z"/>
				<path id="XMLID_80_" d="M67.7,44.9c-0.9,0.1-1.4,0.2-2.1,0.3c-0.7,0.1-2.5,0.3-3.9,0.5c-0.3,0-3.6,0.2-2.4,1.1
					c0.4,0.3,1.1,0,1.5,0c1-0.1,2.3-0.3,3.5-0.4c1.3-0.2,2-0.2,3.6-0.4C69.2,45.8,68.8,44.8,67.7,44.9z"/>
				<path id="XMLID_79_" class="st10" d="M55.8,81.6c0,0.1,0,0.2,0,0.2c0,0,0,0,0,0C55.9,81.7,55.8,81.7,55.8,81.6
					C55.8,81.6,55.8,81.6,55.8,81.6C55.8,81.5,55.8,81.5,55.8,81.6z"/>
				<g id="XMLID_77_">
					<path id="XMLID_78_" class="st6" d="M72.3,87.3c-0.6-0.1-1.4,0-1.9,0c-0.5,0-1.9,0.2-2.9,0.4c-0.4,0.1-3.1,0.2-1.9,1.6
						c0.3,0.3,1,0.3,1.3,0.3c0.7,0,1.7-0.2,2.6-0.3c1-0.1,1.5-0.2,2.6-0.3C73.1,88.9,73.7,87.5,72.3,87.3z"/>
				</g>
				<path id="XMLID_68_" class="st4" d="M76.9,55.6c-0.1-0.6-0.2-1.2,0-1.8c1.9,0.2,7.8,1.2,6.2,4.3C81.7,60.7,77.4,57.4,76.9,55.6z
					"/>
				<path id="XMLID_67_" class="st4" d="M77.6,62.2c-0.1-0.6-0.2-1.2,0-1.8c1.9,0.2,7.8,1.2,6.2,4.3C82.3,67.4,78.1,64.1,77.6,62.2z
					"/>
				<path id="XMLID_66_" class="st11" d="M79.8,55c-0.7,1.3-2.1-0.3-2.6-1c-0.2-0.3-0.6,0-0.4,0.3c0.4,0.6,1,1.2,1.6,1.5
					c0.3,0.2,0.7,0.2,1,0.1c0.4-0.1,0.6-0.4,0.8-0.7C80.4,54.9,80,54.7,79.8,55z"/>
				<path id="XMLID_65_" class="st11" d="M80.1,62.1c-0.6,0.7-1.7-0.2-2.1-0.7c-0.2-0.2-0.6,0.1-0.4,0.3c0.7,0.7,2.1,1.7,2.9,0.7
					C80.7,62.1,80.3,61.8,80.1,62.1z"/>
				<path id="XMLID_64_" class="st4" d="M54.4,56.8c-0.8,2.2-2.4,3.9-4,5.5c-1.2,1.2-3.2,2.3-4.1,3.8c-0.4,3.6-2.1,7-4.3,9.8
					c-0.2,0.4-0.3,0.9-0.3,1.3c0,0.1,0,0.2,0,0.3c0.1,3.7,0,9.3,0.2,13c2.7,1.4,2.9,1.6,5.3,3c0.3-0.2,0.5-2.1,0.8-2.3
					c1-0.7,1.7-1.6,2.8-2.2c0.6-0.4,1.5-0.6,2-1.2c1.2-1.5,0.4-4.5,0.3-6.2c-0.1-2.8,0.3-5.8,0-8.6c-0.3-2.2,0-3.8,1.2-5.8
					c0.1-0.2,0.3-0.3,0.5-0.5c0.2-0.2,0.5-0.3,0.6-0.5c0.7-0.9,1.2-2.1,1.3-3.2C57,61.2,56.8,57.5,54.4,56.8z"/>
				<path id="XMLID_63_" class="st11" d="M55.2,59.9C55,60.5,54.6,61,54,61.2c-0.6,0.2-1.2-0.1-1.6-0.5c-0.2-0.2-0.6,0.1-0.4,0.3
					c0.5,0.6,1.3,0.9,2.1,0.7c0.9-0.2,1.4-0.9,1.6-1.7C55.8,59.7,55.3,59.6,55.2,59.9z"/>
				<path id="XMLID_62_" class="st4" d="M98.4,133.7h11.1c1.1-0.5,2.3-1,3.4-1.4c2-0.6,3.7-0.5,5.4-1.8c0,0,0,0,0.1,0
					c-0.1-1.9-0.1-3.9-0.2-5.8c0-0.3-0.1-0.7-0.1-1c-0.1-0.1-0.1-0.3-0.1-0.4c0-0.7,0-1.4,0-2.1c-2.2-4.6-4.6-9.7-6.2-14.5
					c-1.2-3.7-2.6-7.7-4.6-11c-0.6-1-1.3-1.5-2.5-1.6c-0.9-0.1-1.4,0.1-2.2-0.4c-0.5-0.4-1-1.1-1.6-1.4c-1.3-0.9-2.6,0.2-3.9,0.4
					c-1.6,0.3-2-1.2-3.7-1c-1.9,0.2-3.2,1.8-5.1,1.3c-1.8-0.4-3.1-1.9-4.2-3.3c-1.2-1.5-3.6-5-4.9-6.5c-0.3-0.4-2.7-4.8-2.9-4.7
					c-2.5,0.7-2.2,5.1-1.9,7c0.5,3.3,2.8,6.4,4.5,9.1c2.1,3.4,6,8.4,6.1,12.6c0.1,5.3-5.7,0.4-7.9,0.4c-2.4,0-6.1,0-6.3,3.7
					c2,0.4,3.9,0.5,5.3,2c2.6,2.6,5,5.5,8.3,7.2c2.6,1.3,5.5,2.1,7.8,3.8c2.8,2.1,4.6,6,6,9.1C98.3,133.4,98.4,133.5,98.4,133.7z"/>
				<path id="XMLID_61_" d="M100.7,145.6H125c0-3.2,0-17.3,0-17.3c0.6-3.3-4.7-8-6.5-10.5c-0.6-0.8-1.1-1.2-1.8-1.1
					c-0.9,0-22.9,9.4-24.5,11.2c-1.1,1.2-0.8,2.1,0.4,4.3C93.1,133.1,100.3,145,100.7,145.6z"/>
				<path id="XMLID_60_" class="st11" d="M77.1,82.2c-0.6,0.4-1.3-0.2-1.5-0.8c-0.1-0.3-0.6-0.2-0.5,0.1c0.3,0.9,1.4,1.7,2.3,1.1
					C77.7,82.5,77.4,82,77.1,82.2z"/>
				<path id="XMLID_59_" class="st11" d="M74.3,110.9c0-0.8-1-0.9-1.7-0.6c-0.4,0.2-0.6-0.3-0.2-0.5c1-0.4,2.4-0.2,2.5,0.9
					C74.9,111.1,74.3,111.3,74.3,110.9z"/>
				<g id="XMLID_2_">
					<path id="XMLID_58_" class="st5" d="M94.2,128.3c-0.2-0.2-0.6-0.2-0.9,0c-0.2,0.2-0.2,0.6,0,0.9c0.1,0.1,0.1,0.1,0.2,0.2
						c0,0,0.1,0.1,0.1,0.1c0,0.1,0.1,0.1,0.1,0.2c0.2,0.3,0.6,0.4,0.8,0.2c0.3-0.2,0.4-0.5,0.2-0.8
						C94.6,128.7,94.4,128.5,94.2,128.3z"/>
					<path id="XMLID_57_" class="st5" d="M97.3,127.2c-0.1-0.2-0.3-0.4-0.6-0.4c-0.3,0-0.6,0.3-0.6,0.6c0,0.1,0,0.3,0.1,0.4
						c0,0,0.1,0.1,0.1,0.1c0.1,0.2,0.3,0.4,0.6,0.4c0.3,0,0.6-0.3,0.6-0.6c0-0.1,0-0.3-0.1-0.4C97.4,127.3,97.4,127.2,97.3,127.2z"
						/>
					<path id="XMLID_56_" class="st5" d="M98.8,130L98.8,130L98.8,130c-0.1-0.3-0.3-0.5-0.6-0.5c-0.3,0-0.6,0.3-0.6,0.6
						c0,0.4,0.2,0.6,0.5,0.9c0.2,0.2,0.6,0.2,0.9,0c0.2-0.2,0.2-0.6,0-0.9C98.9,130.1,98.9,130.1,98.8,130z"/>
					<path id="XMLID_55_" class="st5" d="M100.8,125.6c-0.1-0.3-0.6-0.4-0.8-0.2c-0.3,0.2-0.4,0.5-0.2,0.8c0.2,0.3,0.3,0.6,0.4,1
						c0.1,0.3,0.4,0.5,0.7,0.4c0.3-0.1,0.5-0.4,0.4-0.7C101.2,126.5,101,126,100.8,125.6z"/>
					<path id="XMLID_54_" class="st5" d="M101.5,128.6c-0.2,0.2-0.2,0.6,0,0.9c0,0,0,0,0,0c0,0.1,0.1,0.1,0.1,0.2c0,0,0,0,0,0
						c0,0,0,0,0,0.1c0,0.3,0.3,0.6,0.6,0.5c0.3,0,0.6-0.3,0.6-0.6c0-0.4-0.2-0.8-0.5-1.1C102.1,128.3,101.7,128.3,101.5,128.6z"/>
					<path id="XMLID_53_" class="st5" d="M104.5,125.3L104.5,125.3c0-0.1-0.1-0.1-0.1-0.2c-0.1-0.1-0.2-0.3-0.3-0.4
						c-0.2-0.2-0.6-0.2-0.9,0c-0.2,0.2-0.2,0.6,0,0.9c0,0,0,0,0,0l0,0c0,0.1,0.1,0.1,0.1,0.2c0.1,0.1,0.2,0.3,0.3,0.4
						c0.2,0.2,0.6,0.2,0.9,0C104.8,126,104.8,125.6,104.5,125.3C104.6,125.3,104.6,125.3,104.5,125.3z"/>
					<path id="XMLID_52_" class="st5" d="M106.6,127.9c-0.2-0.3-0.6-0.4-0.8-0.2c-0.3,0.2-0.4,0.5-0.2,0.8c0.2,0.5,0.5,0.9,0.9,1.2
						c0.5,0.6,1.4-0.3,0.8-0.9C107,128.6,106.8,128.2,106.6,127.9z"/>
					<path id="XMLID_51_" class="st5" d="M107.7,123.5L107.7,123.5c0-0.1-0.1-0.1-0.1-0.2c-0.1-0.1-0.2-0.3-0.3-0.4
						c-0.2-0.2-0.6-0.2-0.9,0c-0.2,0.2-0.2,0.6,0,0.9c0,0,0,0,0,0l0,0c0,0.1,0.1,0.1,0.1,0.2c0.1,0.1,0.2,0.3,0.3,0.4
						c0.2,0.2,0.6,0.2,0.9,0C108,124.2,108,123.8,107.7,123.5C107.8,123.5,107.8,123.5,107.7,123.5z"/>
					<path id="XMLID_50_" class="st5" d="M110,126.8c-0.2-0.2-0.6-0.2-0.9,0c-0.2,0.2-0.2,0.6,0,0.9c0,0,0,0,0,0c0,0,0,0,0,0
						c0,0.1,0.1,0.1,0.1,0.2c0.1,0.1,0.2,0.3,0.2,0.4c0.1,0.3,0.6,0.4,0.8,0.2c0.3-0.2,0.4-0.5,0.2-0.8
						C110.5,127.4,110.3,127,110,126.8z"/>
					<path id="XMLID_49_" class="st5" d="M110.4,122.5c-0.2-0.2-0.6-0.2-0.9,0c-0.2,0.2-0.2,0.6,0,0.9l0.5,0.5
						c0.2,0.2,0.6,0.2,0.9,0c0.2-0.2,0.2-0.6,0-0.9L110.4,122.5z"/>
					<path id="XMLID_48_" class="st5" d="M113.7,125.9c0,0-0.1-0.1-0.1-0.1c-0.1-0.1-0.1-0.2-0.2-0.3c-0.2-0.2-0.6-0.2-0.9,0
						c-0.2,0.2-0.2,0.6,0,0.9l0,0c0,0,0.1,0.1,0.1,0.1c0.1,0.1,0.1,0.2,0.2,0.3c0.2,0.2,0.6,0.2,0.9,0
						C114,126.6,114,126.2,113.7,125.9L113.7,125.9z"/>
					<path id="XMLID_47_" class="st5" d="M115.1,128.1c-0.3-0.2-0.7-0.1-0.8,0.2c-0.2,0.3-0.1,0.7,0.2,0.8c0.1,0,0.1,0.1,0.2,0.1
						l0,0c0,0,0.1,0.1,0.1,0.1c-0.1-0.1,0,0.1,0,0.1c0,0,0,0,0,0.1c0,0,0,0,0,0c0,0,0,0,0,0.1c0,0.3,0.3,0.6,0.6,0.6
						c0.3,0,0.6-0.3,0.6-0.6C116,128.9,115.6,128.4,115.1,128.1z"/>
					<path id="XMLID_46_" class="st5" d="M113,118.9c-0.3-0.2-0.7-0.1-0.8,0.2c-0.2,0.3-0.1,0.7,0.2,0.8c0,0,0.1,0,0.1,0l0,0
						c0,0,0,0,0,0c0,0,0,0,0.1,0.1l0,0c0,0,0,0,0,0c0.1,0.1,0.2,0.3,0.2,0.4c0.1,0.3,0.6,0.4,0.8,0.2c0.3-0.2,0.4-0.5,0.2-0.8
						C113.6,119.5,113.4,119.1,113,118.9z"/>
					<path id="XMLID_45_" class="st5" d="M115.3,122.4c-0.5-0.6-1.4,0.3-0.8,0.9c0.3,0.3,0.5,0.8,0.7,1.2c0.2,0.3,0.5,0.4,0.8,0.2
						c0.3-0.2,0.4-0.5,0.2-0.8C115.9,123.3,115.7,122.8,115.3,122.4z"/>
					<path id="XMLID_44_" class="st5" d="M117.5,126.1c-0.1-0.3-0.4-0.5-0.7-0.4c-0.3,0.1-0.5,0.4-0.4,0.7c0.2,0.5,0.5,1,0.9,1.4
						c0.2,0.3,0.5,0.4,0.8,0.2c0.3-0.2,0.4-0.6,0.2-0.8C118,126.9,117.7,126.5,117.5,126.1z"/>
					<path id="XMLID_43_" class="st5" d="M117,118.4c-0.1-0.3-0.4-0.5-0.7-0.4c-0.3,0.1-0.5,0.4-0.4,0.7c0.2,0.6,0.5,1.1,0.9,1.6
						c0.2,0.3,0.5,0.4,0.8,0.2c0.3-0.2,0.4-0.6,0.2-0.8C117.4,119.3,117.1,118.9,117,118.4z"/>
					<path id="XMLID_42_" class="st5" d="M112,129.9c-0.1-0.1-0.3-0.1-0.5-0.1c-0.3,0-0.6,0.3-0.6,0.6c0,0.3,0.2,0.5,0.5,0.6
						c0.2,0.2,0.6,0.2,0.8,0c0.2-0.2,0.2-0.6,0-0.9C112.2,130,112.1,129.9,112,129.9z"/>
					<path id="XMLID_41_" class="st5" d="M94.7,132.3c-0.2,0.2-0.2,0.5,0,0.7c0.1,0.1,0.2,0.2,0.2,0.2l0,0c0,0,0,0,0,0.1
						c0,0.3,0.2,0.5,0.5,0.5c0.3,0,0.5-0.2,0.5-0.5c0-0.4-0.3-0.7-0.6-1C95.2,132.1,94.9,132.1,94.7,132.3z"/>
					<path id="XMLID_40_" class="st5" d="M99.7,133.3c-0.2-0.2-0.5-0.2-0.7,0c-0.2,0.2-0.2,0.5,0,0.7l0,0c0,0,0,0,0,0.1c0,0,0,0,0,0
						c0,0,0,0,0,0.1c0.1,0.2,0.1,0.4,0.2,0.5c0.1,0.2,0.5,0.3,0.7,0.2c0.3-0.1,0.3-0.4,0.2-0.7C100,134,99.9,133.6,99.7,133.3z"/>
					<path id="XMLID_39_" class="st5" d="M102.9,132.2c-0.3,0.2-0.3,0.5-0.2,0.8c0.1,0.1,0.2,0.3,0.2,0.4c0.1,0.1,0.1,0.2,0.1,0.3
						c0,0.3,0.3,0.6,0.6,0.6c0.3,0,0.6-0.3,0.6-0.6c0-0.5-0.3-0.9-0.5-1.3C103.5,132.1,103.2,132,102.9,132.2z"/>
					<path id="XMLID_38_" class="st5" d="M109.1,132.4c-0.2-0.1-0.5-0.1-0.7-0.1c-0.3,0-0.6,0.3-0.6,0.6c0,0.3,0.3,0.6,0.6,0.6
						c0,0,0,0,0.1,0c0,0,0,0.1,0.1,0.1c0.1,0.3,0.5,0.4,0.8,0.2c0.3-0.2,0.3-0.5,0.2-0.8C109.4,132.7,109.3,132.5,109.1,132.4z"/>
					<path id="XMLID_37_" class="st5" d="M120.2,123.6c0-0.1-0.1-0.2-0.2-0.3c0,0,0,0,0,0c0,0,0,0,0,0c0,0,0,0,0,0
						c0-0.3-0.3-0.6-0.6-0.6c-0.3,0-0.6,0.3-0.6,0.6c0,0.4,0.2,0.6,0.3,1c0.1,0.3,0.5,0.4,0.8,0.2
						C120.3,124.3,120.3,123.9,120.2,123.6z"/>
					<path id="XMLID_36_" class="st5" d="M122.4,128c-0.3-0.3-0.5-0.6-0.7-0.9c-0.2-0.3-0.5-0.4-0.8-0.2c-0.3,0.2-0.4,0.5-0.2,0.8
						c0.3,0.4,0.5,0.8,0.9,1.2C122.1,129.4,123,128.6,122.4,128z"/>
					<path id="XMLID_35_" class="st5" d="M119.6,131.5C119.5,131.5,119.5,131.5,119.6,131.5c0,0-0.1-0.1-0.1-0.1
						c-0.1-0.1-0.1-0.2-0.2-0.2c-0.1-0.2-0.2-0.4-0.4-0.5c-0.2-0.2-0.6-0.2-0.8,0c-0.2,0.2-0.2,0.6,0,0.8c0,0,0,0,0.1,0.1
						c0,0,0.1,0.1,0.1,0.1c0.1,0.1,0.1,0.2,0.2,0.2c0.1,0.2,0.2,0.4,0.4,0.5c0.2,0.2,0.6,0.2,0.8,0
						C119.8,132.1,119.8,131.8,119.6,131.5z"/>
					<path id="XMLID_34_" class="st5" d="M102.2,142.7c-0.2-0.2-0.6-0.2-0.9,0c-0.2,0.2-0.2,0.6,0,0.9c0.1,0.1,0.1,0.1,0.2,0.2
						c0,0,0.1,0.1,0.1,0.1c0,0.1,0.1,0.1,0.1,0.2c0.2,0.3,0.6,0.4,0.8,0.2c0.3-0.2,0.4-0.5,0.2-0.8
						C102.7,143.2,102.5,142.9,102.2,142.7z"/>
					<path id="XMLID_33_" class="st5" d="M105.4,141.6c-0.1-0.2-0.3-0.4-0.6-0.4c-0.3,0-0.6,0.3-0.6,0.6c0,0.1,0,0.3,0.1,0.4
						c0,0,0.1,0.1,0.1,0.1c0.1,0.2,0.3,0.4,0.6,0.4c0.3,0,0.6-0.3,0.6-0.6c0-0.1,0-0.3-0.1-0.4C105.5,141.7,105.5,141.7,105.4,141.6
						z"/>
					<path id="XMLID_32_" class="st5" d="M106.9,144.4L106.9,144.4L106.9,144.4c-0.1-0.3-0.3-0.5-0.6-0.5c-0.3,0-0.6,0.3-0.6,0.6
						c0,0.4,0.2,0.6,0.5,0.9c0.2,0.2,0.6,0.2,0.9,0c0.2-0.2,0.2-0.6,0-0.9C107,144.6,107,144.5,106.9,144.4z"/>
					<path id="XMLID_31_" class="st5" d="M108.9,140.1c-0.1-0.3-0.6-0.4-0.8-0.2c-0.3,0.2-0.4,0.5-0.2,0.8c0.2,0.3,0.3,0.6,0.4,1
						c0.1,0.3,0.4,0.5,0.7,0.4c0.3-0.1,0.5-0.4,0.4-0.7C109.3,140.9,109.1,140.5,108.9,140.1z"/>
					<path id="XMLID_30_" class="st5" d="M109.6,143c-0.2,0.2-0.2,0.6,0,0.9c0,0,0,0,0,0c0,0.1,0.1,0.1,0.1,0.2c0,0,0,0,0,0
						c0,0,0,0,0,0.1c0,0.3,0.3,0.6,0.6,0.5c0.3,0,0.6-0.3,0.6-0.6c0-0.4-0.2-0.8-0.5-1.1C110.2,142.8,109.8,142.8,109.6,143z"/>
					<path id="XMLID_29_" class="st5" d="M112.6,139.7L112.6,139.7c0-0.1-0.1-0.1-0.1-0.2c-0.1-0.1-0.2-0.3-0.3-0.4
						c-0.2-0.2-0.6-0.2-0.9,0c-0.2,0.2-0.2,0.6,0,0.9c0,0,0,0,0,0l0,0c0,0.1,0.1,0.1,0.1,0.2c0.1,0.1,0.2,0.3,0.3,0.4
						c0.2,0.2,0.6,0.2,0.9,0C112.9,140.4,112.9,140,112.6,139.7C112.7,139.8,112.6,139.7,112.6,139.7z"/>
					<path id="XMLID_28_" class="st5" d="M115.9,133.2L115.9,133.2c0-0.1-0.1-0.1-0.1-0.2c-0.1-0.1-0.2-0.3-0.3-0.4
						c-0.2-0.2-0.6-0.2-0.9,0c-0.2,0.2-0.2,0.6,0,0.9c0,0,0,0,0,0l0,0c0,0.1,0.1,0.1,0.1,0.2c0.1,0.1,0.2,0.3,0.3,0.4
						c0.2,0.2,0.6,0.2,0.9,0C116.2,133.8,116.2,133.5,115.9,133.2C115.9,133.2,115.9,133.2,115.9,133.2z"/>
					<path id="XMLID_27_" class="st5" d="M112.8,135.8L112.8,135.8c0-0.1-0.1-0.1-0.1-0.2c-0.1-0.1-0.2-0.3-0.3-0.4
						c-0.2-0.2-0.6-0.2-0.9,0c-0.2,0.2-0.2,0.6,0,0.9c0,0,0,0,0,0l0,0c0,0.1,0.1,0.1,0.1,0.2c0.1,0.1,0.2,0.3,0.3,0.4
						c0.2,0.2,0.6,0.2,0.9,0C113,136.5,113,136.1,112.8,135.8C112.8,135.9,112.8,135.8,112.8,135.8z"/>
					<path id="XMLID_26_" class="st5" d="M106.9,135.1L106.9,135.1c0-0.1-0.1-0.1-0.1-0.2c-0.1-0.1-0.2-0.3-0.3-0.4
						c-0.2-0.2-0.6-0.2-0.9,0c-0.2,0.2-0.2,0.6,0,0.9c0,0,0,0,0,0l0,0c0,0.1,0.1,0.1,0.1,0.2c0.1,0.1,0.2,0.3,0.3,0.4
						c0.2,0.2,0.6,0.2,0.9,0C107.2,135.7,107.2,135.3,106.9,135.1C106.9,135.1,106.9,135.1,106.9,135.1z"/>
					<path id="XMLID_25_" class="st5" d="M108.9,137.7L108.9,137.7c0-0.1-0.1-0.1-0.1-0.2c-0.1-0.1-0.2-0.3-0.3-0.4
						c-0.2-0.2-0.6-0.2-0.9,0c-0.2,0.2-0.2,0.6,0,0.9c0,0,0,0,0,0l0,0c0,0.1,0.1,0.1,0.1,0.2c0.1,0.1,0.2,0.3,0.3,0.4
						c0.2,0.2,0.6,0.2,0.9,0C109.1,138.4,109.1,138,108.9,137.7C108.9,137.8,108.9,137.8,108.9,137.7z"/>
					<path id="XMLID_24_" class="st5" d="M104.2,139.2L104.2,139.2c0-0.1-0.1-0.1-0.1-0.2c-0.1-0.1-0.2-0.3-0.3-0.4
						c-0.2-0.2-0.6-0.2-0.9,0c-0.2,0.2-0.2,0.6,0,0.9c0,0,0,0,0,0l0,0c0,0.1,0.1,0.1,0.1,0.2c0.1,0.1,0.2,0.3,0.3,0.4
						c0.2,0.2,0.6,0.2,0.9,0C104.4,139.8,104.4,139.4,104.2,139.2C104.2,139.2,104.2,139.2,104.2,139.2z"/>
					<path id="XMLID_23_" class="st5" d="M100,137.4L100,137.4c0-0.1-0.1-0.1-0.1-0.2c-0.1-0.1-0.2-0.3-0.3-0.4
						c-0.2-0.2-0.6-0.2-0.9,0c-0.2,0.2-0.2,0.6,0,0.9c0,0,0,0,0,0l0,0c0,0.1,0.1,0.1,0.1,0.2c0.1,0.1,0.2,0.3,0.3,0.4
						c0.2,0.2,0.6,0.2,0.9,0C100.3,138,100.3,137.6,100,137.4C100,137.4,100,137.4,100,137.4z"/>
					<path id="XMLID_22_" class="st5" d="M99.9,141.2L99.9,141.2c0-0.1-0.1-0.1-0.1-0.2c-0.1-0.1-0.2-0.3-0.3-0.4
						c-0.2-0.2-0.6-0.2-0.9,0c-0.2,0.2-0.2,0.6,0,0.9c0,0,0,0,0,0l0,0c0,0.1,0.1,0.1,0.1,0.2c0.1,0.1,0.2,0.3,0.3,0.4
						c0.2,0.2,0.6,0.2,0.9,0C100.2,141.8,100.2,141.5,99.9,141.2C99.9,141.2,99.9,141.2,99.9,141.2z"/>
					<path id="XMLID_21_" class="st5" d="M97,137.6L97,137.6c0-0.1-0.1-0.1-0.1-0.2c-0.1-0.1-0.2-0.3-0.3-0.4
						c-0.2-0.2-0.6-0.2-0.9,0c-0.2,0.2-0.2,0.6,0,0.9c0,0,0,0,0,0l0,0c0,0.1,0.1,0.1,0.1,0.2c0.1,0.1,0.2,0.3,0.3,0.4
						c0.2,0.2,0.6,0.2,0.9,0C97.2,138.2,97.2,137.9,97,137.6C97,137.6,97,137.6,97,137.6z"/>
					<path id="XMLID_20_" class="st5" d="M114.7,142.3c-0.2-0.3-0.6-0.4-0.8-0.2c-0.3,0.2-0.4,0.5-0.2,0.8c0.2,0.5,0.5,0.9,0.9,1.2
						c0.5,0.6,1.4-0.3,0.8-0.9C115.1,143,114.9,142.7,114.7,142.3z"/>
					<path id="XMLID_19_" class="st5" d="M115.8,138L115.8,138c0-0.1-0.1-0.1-0.1-0.2c-0.1-0.1-0.2-0.3-0.3-0.4
						c-0.2-0.2-0.6-0.2-0.9,0c-0.2,0.2-0.2,0.6,0,0.9c0,0,0,0,0,0l0,0c0,0.1,0.1,0.1,0.1,0.2c0.1,0.1,0.2,0.3,0.3,0.4
						c0.2,0.2,0.6,0.2,0.9,0C116.1,138.6,116.1,138.2,115.8,138C115.9,138,115.8,138,115.8,138z"/>
					<path id="XMLID_18_" class="st5" d="M118.1,141.2c-0.2-0.2-0.6-0.2-0.9,0c-0.2,0.2-0.2,0.6,0,0.9c0,0,0,0,0,0c0,0,0,0,0,0
						c0,0.1,0.1,0.1,0.1,0.2c0.1,0.1,0.2,0.3,0.2,0.4c0.1,0.3,0.6,0.4,0.8,0.2c0.3-0.2,0.4-0.5,0.2-0.8
						C118.5,141.8,118.4,141.5,118.1,141.2z"/>
					<path id="XMLID_17_" class="st5" d="M118.4,137c-0.2-0.2-0.6-0.2-0.9,0c-0.2,0.2-0.2,0.6,0,0.9l0.5,0.5c0.2,0.2,0.6,0.2,0.9,0
						c0.2-0.2,0.2-0.6,0-0.9L118.4,137z"/>
					<path id="XMLID_16_" class="st5" d="M121.8,140.4c0,0-0.1-0.1-0.1-0.1c-0.1-0.1-0.1-0.2-0.2-0.3c-0.2-0.2-0.6-0.2-0.9,0
						c-0.2,0.2-0.2,0.6,0,0.9l0,0c0,0,0.1,0.1,0.1,0.1c0.1,0.1,0.1,0.2,0.2,0.3c0.2,0.2,0.6,0.2,0.9,0
						C122.1,141,122,140.6,121.8,140.4L121.8,140.4z"/>
					<path id="XMLID_15_" class="st5" d="M123.2,142.5c-0.3-0.2-0.7-0.1-0.8,0.2c-0.2,0.3-0.1,0.7,0.2,0.8c0.1,0,0.1,0.1,0.2,0.1
						l0,0c0,0,0.1,0.1,0.1,0.1c-0.1-0.1,0,0.1,0,0.1c0,0,0,0,0,0.1c0,0,0,0,0,0c0,0,0,0,0,0.1c0,0.3,0.3,0.6,0.6,0.6
						c0.3,0,0.6-0.3,0.6-0.6C124.1,143.4,123.7,142.8,123.2,142.5z"/>
					<path id="XMLID_14_" class="st5" d="M121.1,133.3c-0.3-0.2-0.7-0.1-0.8,0.2c-0.2,0.3-0.1,0.7,0.2,0.8c0,0,0.1,0,0.1,0l0,0
						c0,0,0,0,0,0c0,0,0,0,0.1,0.1l0,0c0,0,0,0,0,0c0.1,0.1,0.2,0.3,0.2,0.4c0.1,0.3,0.6,0.4,0.8,0.2c0.3-0.2,0.4-0.5,0.2-0.8
						C121.7,133.9,121.5,133.5,121.1,133.3z"/>
					<path id="XMLID_13_" class="st5" d="M123.4,136.8c-0.5-0.6-1.4,0.3-0.8,0.9c0.3,0.3,0.5,0.8,0.7,1.2c0.2,0.3,0.5,0.4,0.8,0.2
						c0.3-0.2,0.4-0.5,0.2-0.8C124,137.8,123.7,137.2,123.4,136.8z"/>
					<path id="XMLID_10_" class="st5" d="M120.1,144.3c-0.1-0.1-0.3-0.1-0.5-0.1c-0.3,0-0.6,0.3-0.6,0.6c0,0.3,0.2,0.5,0.5,0.6
						c0.2,0.2,0.6,0.2,0.8,0c0.2-0.2,0.2-0.6,0-0.9C120.3,144.5,120.2,144.4,120.1,144.3z"/>
				</g>
			</g>
		</g>
	</g>
	<g>
		<g>
			<defs>
				
					<rect id="SVGID_5_" x="59.1" y="58.1" transform="matrix(0.9939 -0.11 0.11 0.9939 -6.9892 7.7394)" width="15.2" height="18.2"/>
			</defs>
			<clipPath id="SVGID_6_">
				<use xlink:href="#SVGID_5_"  style="overflow:visible;"/>
			</clipPath>
			<path class="st12" d="M64.4,59.1l-4.5,0.5c-0.5,0.1-0.9,0.5-0.8,1c0.1,0.5,0.5,0.9,1,0.8l2.3-0.3l-3.3,4.1
				c-0.3,0.4-0.3,1,0.1,1.3c0.4,0.3,1,0.3,1.3-0.1l3.3-4.1l0.3,2.3c0.1,0.5,0.5,0.9,1,0.8s0.9-0.5,0.8-1l-0.5-4.5
				C65.3,59.4,64.9,59,64.4,59.1"/>
			<path class="st13" d="M67.8,65.1l4.5-0.5c0.5-0.1,0.9-0.5,0.8-1c-0.1-0.5-0.5-0.9-1-0.8L69.8,63l3.3-4.1c0.3-0.4,0.3-1-0.1-1.3
				c-0.4-0.3-1-0.3-1.3,0.1l-3.3,4.1l-0.3-2.3c-0.1-0.5-0.5-0.9-1-0.8c-0.5,0.1-0.9,0.5-0.8,1l0.5,4.5
				C66.8,64.8,67.3,65.1,67.8,65.1"/>
			<path class="st12" d="M61.1,71.3c0.6-0.1,0.8-0.6,0.8-1.2c-0.1-0.6-0.4-1.1-1-1c-0.6,0.1-0.8,0.6-0.8,1.2
				C60.1,70.8,60.4,71.4,61.1,71.3 M60.8,68.5c1-0.1,1.7,0.6,1.8,1.5c0.1,0.9-0.4,1.8-1.4,1.9c-1,0.1-1.7-0.6-1.8-1.5
				C59.3,69.4,59.8,68.6,60.8,68.5"/>
			<path class="st12" d="M62.8,69.2l0.6-0.1l0,0.4l0,0c0.1-0.3,0.4-0.5,0.7-0.6c0,0,0.1,0,0.1,0l0.1,0.6c-0.1,0-0.2,0-0.2,0
				c-0.5,0.1-0.6,0.4-0.6,0.8l0.1,1.1L63,71.6L62.8,69.2z"/>
			<path class="st12" d="M66,70.1c-0.1,0.1-0.3,0.1-0.5,0.2c-0.2,0.1-0.4,0.2-0.3,0.4c0,0.2,0.2,0.3,0.4,0.3
				c0.5-0.1,0.5-0.5,0.5-0.6L66,70.1z M64.5,69.8c0-0.6,0.5-0.9,1-0.9c0.5-0.1,1,0,1.1,0.6l0.1,1.2c0,0.2,0.1,0.4,0.1,0.5l-0.7,0.1
				c0-0.1-0.1-0.1-0.1-0.2c-0.2,0.2-0.5,0.3-0.8,0.4c-0.4,0-0.8-0.1-0.9-0.6c-0.1-0.5,0.3-0.7,0.7-0.8c0.4-0.1,0.8-0.1,0.7-0.4
				c0-0.3-0.2-0.3-0.5-0.3c-0.2,0-0.4,0.1-0.4,0.4L64.5,69.8z"/>
			<path class="st12" d="M66.9,68.8l0.6-0.1l0,0.3l0,0c0.1-0.3,0.4-0.4,0.7-0.5c0.7-0.1,0.9,0.3,1,0.9l0.2,1.4L68.8,71l-0.1-1.3
				c0-0.4-0.2-0.6-0.5-0.5c-0.4,0-0.5,0.3-0.4,0.7l0.1,1.2l-0.6,0.1L66.9,68.8z"/>
			<path class="st12" d="M71.3,69.5c0-0.4-0.2-0.7-0.6-0.7c-0.4,0-0.5,0.4-0.5,0.7c0,0.3,0.2,0.7,0.6,0.6
				C71.2,70.1,71.3,69.8,71.3,69.5 M72,70.5c0,0.4,0,1.1-1.1,1.2c-0.5,0.1-1-0.1-1.1-0.6l0.6-0.1c0.1,0.2,0.3,0.3,0.5,0.3
				c0.4,0,0.5-0.3,0.5-0.6l0-0.3l0,0c-0.1,0.3-0.4,0.4-0.7,0.4c-0.7,0.1-1.1-0.4-1.1-1.1c-0.1-0.6,0.2-1.2,0.9-1.3
				c0.3,0,0.6,0,0.7,0.3l0,0l0-0.3l0.6-0.1L72,70.5z"/>
			<path class="st12" d="M73.8,69c-0.1-0.3-0.3-0.5-0.6-0.4c-0.4,0-0.5,0.4-0.5,0.6L73.8,69z M72.8,69.5c0.1,0.4,0.3,0.6,0.6,0.5
				c0.3,0,0.5-0.2,0.5-0.4l0.6-0.1c-0.1,0.6-0.5,0.9-1,0.9c-0.7,0.1-1.3-0.4-1.3-1.1c-0.1-0.7,0.4-1.3,1.1-1.4
				c0.8-0.1,1.3,0.5,1.3,1.3L72.8,69.5z"/>
		</g>
		<polygon class="st14" points="62.2,72.7 61.7,75.1 61.7,75.1 60.7,72.9 59.7,73 60,76.3 60.7,76.2 60.4,73.9 60.4,73.9 61.5,76.1 
			62,76 62.6,73.7 62.6,73.7 62.8,76 63.5,75.9 63.2,72.6 		"/>
		<g>
			<defs>
				
					<rect id="SVGID_7_" x="59.1" y="58.1" transform="matrix(0.9939 -0.11 0.11 0.9939 -6.9892 7.7394)" width="15.2" height="18.2"/>
			</defs>
			<clipPath id="SVGID_8_">
				<use xlink:href="#SVGID_7_"  style="overflow:visible;"/>
			</clipPath>
			<path class="st15" d="M65,75.3c0.4,0,0.5-0.4,0.5-0.8c0-0.4-0.2-0.7-0.7-0.7c-0.4,0-0.5,0.4-0.5,0.8C64.4,75,64.5,75.3,65,75.3
				 M64.8,73.3c0.7-0.1,1.3,0.4,1.4,1.1c0.1,0.7-0.3,1.3-1.1,1.4c-0.7,0.1-1.3-0.4-1.4-1.1C63.6,73.9,64,73.4,64.8,73.3"/>
			<path class="st15" d="M66.3,73.2l0.6-0.1l0,0.3l0,0c0.1-0.3,0.4-0.4,0.7-0.5c0.7-0.1,0.9,0.3,1,0.9l0.2,1.4l-0.6,0.1l-0.1-1.3
				c0-0.4-0.2-0.6-0.5-0.5c-0.4,0-0.5,0.3-0.4,0.7l0.1,1.2l-0.6,0.1L66.3,73.2z"/>
			<path class="st15" d="M70.5,73.7c-0.1-0.3-0.3-0.5-0.6-0.4c-0.4,0-0.5,0.4-0.5,0.6L70.5,73.7z M69.5,74.2
				c0.1,0.4,0.3,0.6,0.6,0.5c0.3,0,0.5-0.2,0.5-0.4l0.6-0.1c-0.1,0.6-0.5,0.9-1,0.9c-0.7,0.1-1.3-0.4-1.3-1.1
				c-0.1-0.7,0.4-1.3,1.1-1.4c0.8-0.1,1.3,0.5,1.3,1.3L69.5,74.2z"/>
			<path class="st15" d="M72.7,75.2c-0.1,0.4-0.3,0.6-0.8,0.6c-0.1,0-0.3,0-0.4,0l-0.1-0.5c0.1,0,0.3,0,0.4,0c0.2,0,0.3-0.3,0.2-0.5
				L71,72.7l0.7-0.1l0.7,1.6l0,0l0.3-1.7l0.7-0.1L72.7,75.2z"/>
		</g>
	</g>
</g>
</svg>
